<svg width="483" height="31" viewBox="0 0 483 31" fill="none" xmlns="http://www.w3.org/2000/svg">
<path d="M454.195 16.0158C453.534 16.0415 452.866 16.0596 452.218 16.0975C451.798 16.1213 451.617 16.0541 451.336 16.0192C451.242 16.0071 451.141 15.9827 451.055 15.9859C450.4 16.0116 449.746 16.0404 449.091 16.0692C448.892 16.1294 448.766 16.2096 448.459 16.2393C448.159 16.2675 447.805 16.2681 447.471 16.2825C447.03 16.3001 446.589 16.3178 446.149 16.3339C445.928 16.342 445.748 16.3715 445.675 16.4269C445.662 16.4362 445.809 16.459 445.89 16.4727C446.157 16.5183 446.419 16.5701 446.713 16.6049C446.994 16.6382 447.341 16.5823 447.642 16.6248C448.318 16.7204 448.325 16.7188 448.839 16.6995C449.279 16.6819 449.72 16.6627 450.161 16.6496C450.248 16.6464 450.348 16.6692 450.442 16.6814C450.723 16.7147 450.904 16.7912 451.318 16.7613C451.632 16.7377 451.979 16.7325 452.306 16.7196C452.581 16.7637 452.835 16.8139 453.129 16.8488C453.404 16.8821 453.484 16.9081 453.338 16.9529C453.205 16.9946 453.018 17.0118 452.771 17.0153C452.55 17.0173 452.33 17.0314 452.11 17.0395C451.996 17.0443 451.889 17.0476 451.782 17.0524C451.362 17.07 451.362 17.07 450.592 16.973C450.291 16.9351 449.951 16.9895 449.664 16.9531C449.469 16.9289 449.302 16.8923 449.115 16.8665C449.034 16.8559 448.907 16.8546 448.807 16.8578C448.473 16.8692 448.139 16.8774 447.819 16.8979C447.592 16.9122 447.459 16.9554 447.486 16.9984C447.493 17.0153 447.654 17.0396 447.747 17.041C447.961 17.0437 448.188 17.0217 448.395 17.0321C448.596 17.0425 448.803 17.0729 448.95 17.1065C449.252 17.1766 449.592 17.113 449.879 17.131C450.18 17.1504 450.428 17.2114 450.716 17.2478C450.789 17.2569 450.93 17.2413 451.043 17.2365C451.37 17.2252 451.698 17.2154 452.025 17.2041C452.299 17.2481 452.594 17.2876 452.842 17.3378C453.29 17.4292 453.772 17.4637 454.352 17.4182C454.679 17.393 455 17.4017 455.261 17.4611C455.529 17.5221 455.837 17.5155 456.177 17.5026C456.491 17.4897 456.811 17.4554 457.132 17.4978C457.828 17.5919 457.835 17.5965 458.656 17.5582C458.903 17.547 459.09 17.5436 459.278 17.5786C459.452 17.6106 459.639 17.6379 459.82 17.6683C460.147 17.657 460.481 17.6457 460.808 17.6328C461.229 17.6152 461.463 17.6363 461.564 17.7221C461.625 17.7743 461.653 17.8218 461.8 17.8569C461.974 17.8996 462.161 17.8978 462.415 17.885C462.655 17.8739 462.829 17.8567 462.928 17.8012C462.968 17.7781 463.048 17.7564 463.121 17.7379C463.181 17.7239 463.274 17.7023 463.328 17.7052C463.428 17.7112 463.562 17.7279 463.596 17.7478C463.925 17.9331 463.925 17.9347 464.26 17.9878C464.628 18.0471 465.01 18.1002 465.344 18.1672C465.646 18.2266 465.946 18.2 466.273 18.1994C466.521 18.199 466.681 18.2387 466.662 18.2787C466.649 18.3017 466.556 18.3357 466.476 18.3389C465.821 18.3707 465.16 18.398 464.499 18.4207C464.419 18.4239 464.319 18.3964 464.225 18.3827C464.037 18.3554 463.87 18.3127 463.669 18.3038C463.469 18.2949 463.235 18.3184 463.015 18.3265C462.795 18.3345 462.561 18.3549 462.36 18.343C462.16 18.331 461.999 18.2867 461.811 18.2579C461.724 18.2442 461.604 18.2244 461.531 18.2292C461.043 18.2669 460.682 18.2168 460.334 18.1498C460.26 18.1361 460.133 18.1271 460.04 18.1304C459.265 18.1578 458.497 18.1899 457.723 18.2204C457.409 18.2333 457.154 18.1799 457.086 18.0894C457.052 18.0388 456.985 17.9882 456.984 17.9375C456.983 17.8453 456.615 17.7952 456.348 17.8065C455.907 17.8226 455.46 17.8357 455.026 17.8595C454.672 17.8785 454.371 17.8606 454.13 17.8057C453.848 17.7432 453.528 17.7561 453.208 17.7735C452.967 17.7862 452.901 17.837 452.916 17.9645C452.93 18.0674 452.817 18.0999 452.383 18.1175C451.836 18.14 451.281 18.1625 450.727 18.1803C450.64 18.1836 450.54 18.1576 450.453 18.1439C450.266 18.1166 450.098 18.0723 449.897 18.0635C449.697 18.0531 449.463 18.0765 449.243 18.0861C449.023 18.0942 448.789 18.1161 448.588 18.1057C448.388 18.0953 448.22 18.0495 448.04 18.0206C447.953 18.0069 447.845 17.9872 447.759 17.9904C447.318 18.0034 446.877 18.0226 446.437 18.0403C445.942 18.0596 445.942 18.0596 445.24 17.9656C444.919 17.9231 444.598 17.9575 444.284 17.9703C443.951 17.9832 443.637 17.9899 443.375 17.9289C443.201 17.8892 443.007 17.865 442.8 17.873C442.246 17.8924 441.698 17.9164 441.144 17.9358C441.051 17.939 440.924 17.9316 440.85 17.9179C440.495 17.854 440.147 17.8039 439.653 17.837C439.226 17.8654 438.765 17.8677 438.338 17.8946C438.104 17.9088 437.998 17.9582 438.045 17.9965C438.072 18.0164 438.213 18.0392 438.306 18.0391C438.52 18.0402 438.753 18.0168 438.954 18.0256C439.368 18.0434 439.577 18.172 440.118 18.1358C440.438 18.1137 440.772 18.1054 441.106 18.0987C441.193 18.097 441.287 18.1261 441.38 18.1413C441.648 18.1823 441.883 18.2356 442.27 18.2073C442.59 18.1852 442.931 18.1785 443.258 18.1657C443.779 18.1448 443.779 18.1463 444.455 18.2389C444.776 18.2829 445.096 18.247 445.41 18.2357C445.644 18.2276 445.864 18.2118 446.051 18.233C446.339 18.2648 446.547 18.3381 446.901 18.3329C447.235 18.3277 447.562 18.3057 447.896 18.2974C448.103 18.2924 448.297 18.3167 448.465 18.3579C448.639 18.3991 448.826 18.4172 449.053 18.4075C449.38 18.3947 449.714 18.3787 450.048 18.3705C450.142 18.3688 450.249 18.3824 450.336 18.3946C450.523 18.4219 450.704 18.4538 450.885 18.4827C451.212 18.4729 451.546 18.4693 451.866 18.4503C452.113 18.436 452.287 18.4419 452.488 18.4723C452.742 18.5133 452.95 18.5867 453.364 18.5506C453.571 18.5334 453.811 18.5376 454.018 18.5218C454.272 18.5014 454.446 18.5088 454.627 18.5546C454.968 18.6415 455.396 18.6423 455.837 18.6078C456.317 18.5701 456.678 18.6125 457.04 18.6794C457.422 18.7495 457.422 18.7479 457.718 18.9179C457.805 18.9669 458.052 18.9896 458.259 18.98C458.607 18.964 458.907 18.9712 459.162 19.0291C459.43 19.0916 459.75 19.0834 460.078 19.0659C460.512 19.0421 460.946 19.0214 461.301 19.1099C461.475 19.1526 461.662 19.163 461.896 19.1519C462.557 19.1231 463.225 19.105 463.872 19.0701C464.266 19.0479 464.494 19.0967 464.762 19.1377C465.123 19.1939 465.518 19.2439 465.519 19.3653C465.52 19.3852 465.613 19.4081 465.694 19.4234C465.868 19.4553 466.055 19.4826 466.236 19.5131C466.504 19.5587 466.765 19.5966 467.132 19.5714C467.452 19.5509 467.793 19.5441 468.12 19.5298C468.447 19.5154 468.748 19.5072 469.043 19.565C469.384 19.6305 469.746 19.6929 470.134 19.7413C470.408 19.7762 470.768 19.7157 471.063 19.7628C471.243 19.7917 471.417 19.8251 471.611 19.8494C471.692 19.86 471.819 19.8521 471.925 19.8488C472.146 19.8423 472.373 19.8373 472.587 19.8216C472.834 19.8043 473.021 19.807 473.208 19.842C473.382 19.874 473.556 19.9182 473.757 19.9271C474.058 19.9404 474.391 19.8784 474.692 19.9485C474.847 19.9836 475.041 20.0171 475.241 20.0275C475.442 20.0379 475.675 20.0144 475.889 20.0156C475.983 20.0154 476.096 20.0398 476.15 20.0597C476.184 20.0704 476.137 20.0996 476.091 20.1151C476.031 20.1336 475.944 20.1584 475.857 20.1616C475.196 20.1904 474.535 20.2146 473.874 20.2418C473.48 20.2579 473.48 20.2579 472.684 20.1625C472.497 20.1398 472.29 20.1447 472.056 20.1559C471.742 20.1703 471.422 20.1969 471.094 20.1699C470.665 20.0661 470.138 20.0578 469.577 20.0987C469.343 20.116 469.129 20.1164 468.955 20.0875C468.587 20.0298 468.199 19.9767 467.871 19.9081C467.616 19.8548 467.496 19.8504 467.39 19.9243C467.357 19.9474 467.324 19.9721 467.331 19.9936C467.372 20.0703 467.446 20.1455 467.487 20.2222C467.501 20.2437 467.448 20.2684 467.415 20.2915C467.309 20.3562 467.168 20.3518 466.934 20.2984C466.699 20.2451 466.418 20.2102 466.044 20.2355C465.724 20.2575 465.377 20.2551 465.056 20.2787C464.562 20.3133 464.214 20.2648 463.859 20.1993C463.786 20.1856 463.659 20.1782 463.565 20.1814C462.57 20.2185 461.582 20.2601 460.587 20.2972C460.373 20.3052 460.179 20.2825 460.012 20.2413C459.838 20.2002 459.644 20.179 459.43 20.187C458.548 20.2208 457.667 20.2516 456.786 20.293C456.425 20.3106 456.138 20.2911 455.89 20.2377C455.702 20.1981 455.528 20.1861 455.295 20.1911C455.041 20.1962 454.861 20.2119 454.734 20.2567C454.615 20.2999 454.702 20.3258 454.969 20.3592C455.257 20.3955 455.525 20.4427 455.799 20.4853C456.02 20.4787 456.24 20.466 456.454 20.4672C456.547 20.467 456.634 20.4945 456.728 20.5097C456.996 20.5538 457.244 20.598 457.624 20.5727C457.945 20.5507 458.285 20.5455 458.612 20.5311C459.066 20.5134 459.066 20.5134 459.802 20.6089C459.99 20.6331 460.19 20.6312 460.431 20.617C460.637 20.6059 460.852 20.627 460.999 20.6729C461.059 20.6912 461.04 20.722 460.914 20.8236C460.915 20.8989 461.055 20.8648 461.101 20.8156C461.174 20.7448 461.033 20.722 460.766 20.7608C460.58 20.7888 460.487 20.8289 460.534 20.8611C460.561 20.878 460.688 20.8993 460.914 20.8236C461.501 20.7304 461.948 20.7188 462.376 20.6935C462.629 20.6792 462.79 20.6851 462.991 20.7247C463.232 20.7719 463.473 20.8222 463.867 20.7969C464.294 20.7685 464.748 20.7647 465.182 20.7409C465.583 20.7187 465.791 20.7859 466.045 20.8254C466.353 20.8725 466.693 20.8181 466.974 20.8453C467.268 20.8725 467.476 20.9397 467.817 20.9514C468.311 20.909 468.626 20.9853 469 21.0354C469.295 21.0733 469.642 21.0389 469.955 21.0214C470.309 21.0024 470.603 21.0188 470.851 21.0736C471.133 21.1361 471.447 21.1218 471.767 21.1074C472.515 21.0754 472.541 21.0707 472.977 21.1544C473.291 21.2153 473.592 21.1872 473.906 21.179C474.18 21.22 474.448 21.264 474.736 21.3004C474.809 21.3095 474.949 21.2939 475.063 21.2891C475.39 21.2762 475.724 21.2634 476.051 21.2505C476.271 21.2424 476.505 21.219 476.706 21.2279C476.906 21.2383 477.074 21.2825 477.254 21.3114C477.435 21.3403 477.623 21.3691 477.797 21.3996C478.064 21.4452 478.319 21.4832 478.692 21.4595C479.013 21.4389 479.347 21.4322 479.681 21.4178C480.101 21.4002 480.088 21.4048 480.871 21.4956C481.292 21.5456 481.726 21.4834 482.153 21.4765C482.367 21.4731 482.574 21.4896 482.722 21.5339C482.782 21.5522 482.763 21.583 482.783 21.6091C481.681 21.6525 480.573 21.6897 479.484 21.7423C479.064 21.763 478.843 21.7081 478.615 21.6624C478.24 21.5893 477.747 21.6977 477.392 21.6031C477.177 21.5466 476.869 21.5149 476.502 21.5432C476.289 21.5589 476.061 21.5577 475.841 21.572C475.28 21.6067 474.766 21.6092 474.317 21.5039C474.163 21.4673 473.942 21.4477 473.782 21.4127C473.594 21.3746 473.413 21.3534 473.193 21.3615C472.198 21.4001 471.21 21.4387 470.222 21.4803C470.135 21.4835 470.048 21.5067 469.975 21.5238C469.788 21.5671 469.849 21.6008 470.15 21.6279C470.25 21.637 470.331 21.6568 470.424 21.672C470.605 21.7009 470.773 21.7467 470.973 21.7571C471.174 21.7675 471.407 21.7456 471.628 21.7375C471.848 21.7295 472.082 21.706 472.282 21.7149C472.483 21.7253 472.65 21.7695 472.838 21.7969C472.925 21.8106 473.032 21.8334 473.119 21.8317C473.56 21.8217 473.994 21.8041 474.434 21.7895C474.709 21.8305 474.943 21.89 475.271 21.9033C475.478 21.9121 475.698 21.8948 475.912 21.8975C476.006 21.8989 476.126 21.9217 476.173 21.9416C476.2 21.9539 476.113 21.9848 476.047 22.0002C475.794 22.0591 475.446 22.0489 475.133 22.0679C474.792 22.0884 474.485 22.0828 474.223 22.0234C474.049 21.9837 473.855 21.9626 473.641 21.9706C473.087 21.9916 472.54 22.0156 471.985 22.0334C471.892 22.0367 471.778 22.023 471.691 22.0124C470.989 21.9199 470.989 21.9169 470.494 21.9377C469.767 21.9681 469.767 21.9681 469.278 21.8875C469.184 21.8723 469.084 21.8433 469.003 21.845C468.229 21.8709 467.461 21.8969 466.693 21.9335C466.439 21.9447 466.266 21.945 466.078 21.9054C465.917 21.8719 465.73 21.8338 465.529 21.8249C465.322 21.8161 465.095 21.8395 464.875 21.8476C464.655 21.8556 464.421 21.876 464.227 21.8641C464.027 21.8521 463.852 21.8094 463.678 21.779C463.497 21.747 463.304 21.7489 463.057 21.7616C462.296 21.7983 462.289 21.7937 461.533 21.6997C461.446 21.6891 461.332 21.677 461.239 21.6803C460.684 21.6997 460.137 21.7237 459.583 21.7431C459.369 21.7511 459.161 21.7315 459.014 21.6872C458.954 21.6689 458.973 21.6381 458.933 21.5783C458.886 21.5645 458.939 21.589 458.953 21.6121C459.053 21.6088 459.173 21.6117 459.247 21.5992C459.433 21.5697 459.526 21.5312 459.479 21.499C459.452 21.4821 459.325 21.4608 459.245 21.461C459.098 21.4612 458.972 21.4952 458.933 21.5783C458.512 21.6297 458.065 21.6412 457.631 21.6666C457.377 21.6824 457.217 21.675 457.016 21.6354C456.775 21.5866 456.527 21.5394 456.133 21.5647C455.706 21.5931 455.252 21.5985 454.811 21.6208C454.304 21.6462 454.081 21.5083 453.654 21.5122C453.213 21.516 452.772 21.5429 452.332 21.5621C451.944 21.5781 451.944 21.5781 451.141 21.4797C450.847 21.4433 450.5 21.4977 450.213 21.4598C450.019 21.4355 449.851 21.3989 449.664 21.3731C449.584 21.3625 449.457 21.3627 449.356 21.366C448.802 21.3854 448.241 21.3987 447.707 21.4334C447.1 21.4744 446.638 21.4322 446.203 21.3423C445.655 21.3601 445.101 21.3703 444.56 21.4004C444.166 21.4226 443.938 21.3723 443.671 21.3313C443.577 21.3177 443.497 21.2948 443.396 21.2888C443.296 21.2828 443.176 21.2953 443.069 21.3001C442.628 21.3178 442.174 21.3262 441.747 21.3546C441.22 21.3909 441.018 21.2653 440.61 21.2506C440.337 21.3264 440.191 21.4295 439.65 21.4382C439.209 21.4451 438.769 21.4704 438.328 21.4881C438.108 21.4961 437.887 21.5058 437.667 21.5138C437.313 21.5283 437.147 21.5885 437.221 21.6805C437.262 21.7311 437.296 21.7818 437.33 21.8324C437.398 21.9229 437.232 22.0001 436.951 22.0113C436.177 22.0418 435.409 22.0739 434.634 22.1013C434.427 22.1094 434.227 22.0836 434.059 22.0424C433.885 22.0012 433.691 21.9832 433.477 21.9912C432.703 22.0217 431.935 22.0538 431.16 22.0813C431.073 22.0845 430.96 22.0693 430.873 22.0572C430.685 22.0299 430.504 21.9979 430.324 21.969C429.883 21.9836 429.449 21.9936 429.015 22.0128C428.314 22.0416 428.314 22.0432 427.798 21.9596C427.705 21.9444 427.611 21.9154 427.524 21.9171C427.19 21.9238 426.863 21.9397 426.529 21.9541C425.547 21.9958 425.547 21.9958 425.259 21.9502C424.998 21.9076 424.764 21.8558 424.37 21.881C423.943 21.9094 423.489 21.9194 423.048 21.9356C422.721 21.9469 422.394 21.9598 422.066 21.9634C421.979 21.9651 421.886 21.9361 421.792 21.9209C421.524 21.8737 421.263 21.8357 420.896 21.8625C420.682 21.8782 420.455 21.8817 420.235 21.8898C419.661 21.9123 419.661 21.9123 418.718 21.8217C418.624 21.8127 418.51 21.8021 418.417 21.8069C417.642 21.8359 416.874 21.8679 416.1 21.8954C416.006 21.8986 415.892 21.8896 415.799 21.8821C414.742 21.7948 414.742 21.7948 413.62 21.8398C413.193 21.8559 413.18 21.8621 412.731 21.7814C412.53 21.7464 412.363 21.7298 412.129 21.741C411.248 21.7794 410.36 21.8055 409.485 21.8501C409.091 21.8692 408.864 21.8235 408.596 21.7825C408.502 21.7688 408.402 21.7383 408.321 21.7399C407.44 21.7706 406.558 21.8075 405.677 21.8382C405.597 21.8414 405.496 21.8109 405.403 21.7972C405.222 21.7699 405.048 21.7287 404.847 21.7198C404.64 21.711 404.413 21.7344 404.186 21.7425C403.632 21.7634 403.632 21.7619 402.989 21.6724C402.902 21.6602 402.789 21.6435 402.702 21.6467C401.82 21.679 400.932 21.7067 400.058 21.7527C399.557 21.7782 399.215 21.7342 398.861 21.6703C398.787 21.6566 398.66 21.6507 398.567 21.6539C397.572 21.691 396.583 21.7326 395.588 21.7697C395.381 21.7778 395.181 21.752 395.013 21.7123C394.745 21.6498 394.431 21.658 394.097 21.6724C393.33 21.706 393.323 21.7045 392.868 21.6316C392.774 21.6164 392.694 21.5965 392.593 21.589C392.5 21.5815 392.379 21.5863 392.279 21.5896C391.839 21.6057 391.398 21.6234 390.957 21.641C390.516 21.6587 390.069 21.6687 389.635 21.6956C389.101 21.7288 388.846 21.6293 388.471 21.5839C387.923 21.6048 387.362 21.6181 386.822 21.6513C386.408 21.6766 386.213 21.6093 385.939 21.5745C385.845 21.5623 385.745 21.5364 385.658 21.5396C384.663 21.5751 383.668 21.6137 382.68 21.6569C382.439 21.6666 382.279 21.6546 382.078 21.618C381.63 21.5358 381.609 21.539 380.862 21.571C380.534 21.5854 380.221 21.5982 379.939 21.5357C379.691 21.4793 379.391 21.466 379.037 21.485C378.603 21.5088 378.155 21.5219 377.715 21.538C377.274 21.5557 376.833 21.5795 376.392 21.588C376.039 21.5963 375.824 21.5244 375.543 21.4881C375.456 21.4774 375.336 21.4761 375.235 21.4794C374.795 21.4939 374.341 21.5055 373.913 21.5323C373.393 21.5655 373.104 21.4815 372.736 21.433C372.656 21.4224 372.522 21.4288 372.422 21.4336C371.648 21.4625 370.88 21.4946 370.105 21.5251C369.831 21.4841 369.55 21.4447 369.275 21.4037C368.834 21.4198 368.394 21.4375 367.953 21.4536C367.619 21.4665 367.279 21.4717 366.965 21.4953C366.558 21.5267 366.356 21.4548 366.082 21.42C365.988 21.4078 365.888 21.3819 365.801 21.3851C365.247 21.403 364.692 21.4224 364.145 21.4495C363.624 21.4765 363.415 21.3386 362.988 21.3408C362.547 21.3431 362.093 21.3639 361.666 21.3923C361.172 21.4254 360.824 21.3769 360.469 21.3114C360.395 21.2977 360.268 21.2903 360.175 21.2935C359.621 21.3129 359.073 21.3369 358.519 21.3563C358.425 21.3595 358.312 21.352 358.218 21.343C357.161 21.2542 357.161 21.2527 356.701 21.2719C356.373 21.2847 356.04 21.3007 355.706 21.3089C355.612 21.3122 355.498 21.2986 355.411 21.2864C354.715 21.1939 354.715 21.1924 354.215 21.2117C353.774 21.2293 353.333 21.247 352.892 21.2647C352.618 21.2237 352.337 21.1842 352.063 21.1432C351.515 21.1641 350.954 21.1805 350.413 21.209C350.159 21.2218 349.992 21.2175 349.798 21.1794C349.557 21.1337 349.316 21.0804 348.915 21.1072C348.488 21.1356 348.034 21.1394 347.6 21.1632C347.079 21.1918 346.864 21.0524 346.443 21.0546C346.002 21.0569 345.548 21.0777 345.121 21.1061C344.627 21.1392 344.279 21.0907 343.924 21.0252C343.85 21.0115 343.723 21.0041 343.63 21.0073C342.415 21.054 341.206 21.1006 339.991 21.1503C339.243 21.1808 339.243 21.1824 337.819 21.1003C337.719 21.0944 337.611 21.0884 337.511 21.0917C337.071 21.1063 336.616 21.1178 336.189 21.1446C335.668 21.1778 335.38 21.0954 335.012 21.0453C334.932 21.0347 334.805 21.041 334.698 21.0443C334.364 21.0556 334.037 21.07 333.703 21.0829C333.263 21.1006 332.822 21.1182 332.381 21.1359C332.107 21.0964 331.826 21.0554 331.551 21.016C331.004 21.0369 330.443 21.0486 329.902 21.0818C329.488 21.1071 329.293 21.0429 329.019 21.0065C328.925 20.9944 328.825 20.9685 328.738 20.9702C327.743 21.0057 326.748 21.0428 325.76 21.0875C325.353 21.1066 325.165 21.0378 324.89 21.0029C324.797 20.9924 324.69 20.9726 324.603 20.9758C323.942 20.9985 323.281 21.0257 322.62 21.053C322.246 21.069 322.246 21.069 321.43 20.9752C321.336 20.9646 321.229 20.954 321.135 20.9572C319.039 21.0377 316.949 21.1228 314.852 21.2032C314.638 21.2113 314.444 21.1886 314.277 21.1474C314.102 21.1062 313.908 21.085 313.695 21.0931C312.813 21.1269 311.925 21.1576 311.05 21.1991C310.69 21.2166 310.402 21.1971 310.154 21.1438C309.967 21.1041 309.793 21.0891 309.559 21.0987C309.119 21.1179 308.678 21.134 308.237 21.1517C307.797 21.1694 307.356 21.1871 306.915 21.2047C306.474 21.2224 306.027 21.2324 305.593 21.2592C305.059 21.2924 304.797 21.1976 304.429 21.1507C303.768 21.1748 303.107 21.199 302.453 21.2248C301.571 21.2585 300.69 21.2954 299.808 21.3277C299.728 21.3309 299.628 21.3034 299.534 21.2897C299.26 21.2518 299.058 21.1984 298.651 21.216C296.675 21.3009 294.685 21.3734 292.702 21.4568C292.288 21.4744 292.106 21.4086 291.825 21.3738C291.732 21.3632 291.625 21.3419 291.538 21.3451C290.436 21.3854 289.334 21.4304 288.233 21.4737C287.785 21.4914 287.785 21.4914 287.036 21.3975C286.949 21.3869 286.835 21.3732 286.741 21.3765C285.306 21.4312 283.877 21.489 282.441 21.5453C282.227 21.5533 282.033 21.5321 281.859 21.491C281.692 21.4498 281.491 21.4271 281.284 21.4351C279.962 21.4866 278.633 21.5365 277.318 21.5926C276.964 21.6085 276.67 21.5952 276.415 21.5404C276.234 21.5007 276.054 21.4841 275.827 21.4938C273.843 21.5725 271.86 21.6481 269.877 21.7315C269.496 21.7475 269.229 21.7188 268.988 21.6685C268.794 21.6289 268.626 21.6215 268.386 21.6281C268.132 21.6362 267.979 21.6533 267.839 21.6997C267.659 21.7599 267.547 21.8354 267.119 21.8407C266.678 21.8461 266.231 21.8653 265.797 21.8922C265.383 21.919 265.189 21.8502 264.928 21.8092C264.733 21.7803 264.553 21.7761 264.306 21.7903C264.079 21.803 263.939 21.8293 263.806 21.8787C263.513 21.9837 263.487 21.9838 263.125 21.9183C262.931 21.8833 262.757 21.856 262.543 21.8625C261.662 21.8948 260.78 21.9301 259.899 21.967C259.391 21.9878 259.385 21.9909 259.003 21.9147C258.816 21.8767 258.635 21.8585 258.415 21.8681C255.991 21.9645 253.567 22.0578 251.143 22.1588C250.769 22.1749 250.515 22.143 250.247 22.0974C250.16 22.0822 250.073 22.0608 249.972 22.0549C249.872 22.0489 249.759 22.0552 249.652 22.0585C247.889 22.1276 246.119 22.1937 244.363 22.2705C243.963 22.2881 243.748 22.2393 243.474 22.1998C243.38 22.1862 243.3 22.1648 243.199 22.1588C243.099 22.1544 242.979 22.1653 242.872 22.1701C241.109 22.2393 239.34 22.3053 237.584 22.3821C237.163 22.3998 236.982 22.3355 236.708 22.3022C236.614 22.2901 236.513 22.2672 236.427 22.2704C235.872 22.2883 235.325 22.3123 234.771 22.3332C233.448 22.3862 232.126 22.4362 230.804 22.4907C230.297 22.5115 230.074 22.3752 229.647 22.3821C229.093 22.3907 228.545 22.4224 227.991 22.4449C227.55 22.4625 227.109 22.4787 226.669 22.4979C226.235 22.5155 226.235 22.5155 225.151 22.4283C225.058 22.4208 224.944 22.4102 224.851 22.4134C223.308 22.473 221.759 22.5325 220.223 22.5966C219.869 22.6111 219.575 22.6039 219.321 22.5475C219.14 22.5079 218.953 22.4882 218.732 22.4978C216.415 22.5894 214.105 22.681 211.787 22.7711C211.701 22.7743 211.587 22.7591 211.5 22.747C211.313 22.7196 211.132 22.6877 210.951 22.6588C210.818 22.6944 210.645 22.7269 210.558 22.767C210.439 22.821 210.279 22.8367 210.025 22.8463C209.771 22.856 209.611 22.8532 209.41 22.8136C209.169 22.7649 208.921 22.7269 208.527 22.7429C206.103 22.8439 203.679 22.9357 201.255 23.0352C200.855 23.0512 200.667 22.9839 200.386 22.9491C200.292 22.9385 200.185 22.9218 200.098 22.925C199.103 22.9621 198.115 23.0022 197.12 23.0408C194.362 23.1501 191.604 23.2547 188.853 23.3701C188.353 23.391 188.011 23.3531 187.656 23.2877C187.583 23.274 187.456 23.2665 187.362 23.2698C183.503 23.4209 179.643 23.5735 175.79 23.7262C175.583 23.7342 175.382 23.71 175.215 23.6703C175.041 23.6291 174.847 23.6095 174.633 23.6176C172.87 23.6867 171.107 23.7558 169.345 23.8265C168.904 23.8442 168.897 23.8457 168.442 23.7727C168.348 23.7575 168.248 23.7285 168.174 23.7317C168.021 23.7397 167.874 23.7783 167.768 23.8307C167.662 23.8862 167.495 23.9019 167.248 23.9131C166.994 23.9243 166.827 23.92 166.633 23.8834C166.385 23.8378 166.157 23.7936 165.757 23.8097C160.689 24.0151 155.62 24.2129 150.552 24.4168C150.145 24.4329 149.957 24.3687 149.676 24.3338C149.582 24.3232 149.489 24.308 149.388 24.3051C149.281 24.3022 149.168 24.3117 149.061 24.3165C140.794 24.6427 132.528 24.9705 124.261 25.2967C123.767 25.316 123.774 25.316 123.234 25.4583C123.168 25.4753 123.081 25.4985 122.987 25.5017C120.457 25.6044 117.919 25.7041 115.382 25.8037C114.28 25.8471 113.178 25.8921 112.077 25.9339C111.683 25.9484 111.683 25.9484 110.743 26.116C110.663 26.13 110.569 26.1486 110.476 26.1518C106.069 26.3269 101.661 26.502 97.2475 26.6741C96.9003 26.687 96.6201 26.7151 96.4607 26.7891C96.3477 26.8416 96.2011 26.8725 95.9808 26.8821C92.8958 27.0043 89.8109 27.1279 86.7192 27.247C86.3519 27.2614 86.1319 27.3048 85.9523 27.3697C85.8924 27.3913 85.8392 27.4159 85.7526 27.4315C85.6726 27.4454 85.5524 27.4502 85.4523 27.455C82.808 27.5595 80.1638 27.667 77.5128 27.7669C77.1188 27.7814 76.9591 27.8385 76.7661 27.8988C76.6995 27.9188 76.6531 27.9466 76.5664 27.9606C76.4797 27.973 76.3528 27.9732 76.2459 27.9765C74.0423 28.0633 71.8388 28.1516 69.6353 28.2384C69.2076 28.2314 69.1151 28.3207 68.9087 28.3748C68.8354 28.3934 68.7824 28.4181 68.6957 28.4305C68.6023 28.443 68.4819 28.4416 68.3683 28.4449C66.6055 28.514 64.8427 28.5878 63.0731 28.6523C62.6658 28.6668 62.5865 28.7453 62.3667 28.7995C62.2934 28.8165 62.2204 28.8427 62.1336 28.8475C61.0318 28.894 59.9301 28.9374 58.8283 28.9792C58.461 28.9937 58.461 28.9922 57.8148 29.1454C57.7415 29.1624 57.6548 29.181 57.5613 29.1858C55.912 29.2532 54.256 29.3175 52.6 29.3833C52.3863 29.3914 52.2399 29.4285 52.1336 29.4809C52.0273 29.5334 51.8741 29.5674 51.6604 29.5755C50.3383 29.6285 49.0161 29.683 47.6939 29.7314C47.3266 29.7443 47.0866 29.7831 46.9271 29.8526C46.8075 29.905 46.6609 29.9314 46.4272 29.941C45.105 29.9924 43.7829 30.0485 42.454 30.0939C42.0667 30.1068 41.8668 30.1594 41.7073 30.2242C41.581 30.2766 41.4342 30.2953 41.1872 30.305C38.7632 30.3983 36.3326 30.4916 33.9155 30.5941C33.5082 30.6118 33.3004 30.5583 33.0327 30.5204C32.6512 30.4673 32.2965 30.4095 32.2951 30.2897C32.2949 30.2713 32.181 30.25 32.1007 30.2347C31.5047 30.1205 31.5047 30.1205 31.4096 29.9978C31.3553 29.9226 31.2942 29.8459 31.2465 29.7692C31.1581 29.6434 30.9439 29.6115 30.3296 29.6356C30.1092 29.6436 29.8889 29.6548 29.6685 29.6613C29.3413 29.6726 29.0935 29.6223 29.0323 29.5303C28.9982 29.4796 28.9576 29.429 28.9236 29.3784C29.2575 29.3655 29.2507 29.364 29.8363 29.1771C30.0825 29.0983 30.0826 29.0983 29.6074 29.0208C29.4266 28.9919 29.2525 28.9599 29.0584 28.9326C28.9714 28.9205 28.8578 28.913 28.7643 28.9162C28.21 28.9356 27.6625 28.9581 27.115 28.9805C26.2336 29.0159 26.2335 29.0158 25.3363 28.8607C25.2627 28.8485 25.1489 28.8257 25.1621 28.8134C25.2349 28.7564 25.4149 28.7315 25.642 28.725C25.9759 28.7152 26.303 28.6992 26.6302 28.6864C26.8506 28.6783 27.0709 28.6687 27.2913 28.6607C27.4977 28.6019 27.7109 28.5447 27.9039 28.4845C28.2101 28.3918 28.2099 28.3887 27.7883 28.3249C27.5205 28.2823 27.2328 28.2444 26.9584 28.2049C26.6312 28.2178 26.2974 28.2322 25.9702 28.2435C25.5561 28.2581 25.3887 28.2292 25.2806 28.1295C25.186 28.0421 25.2987 27.9666 25.6191 27.9476C25.9463 27.9286 26.2536 27.9158 26.4196 27.8372C26.579 27.7616 26.8592 27.7319 27.2065 27.7252C27.4269 27.7202 27.6473 27.7091 27.8676 27.6995C28.1547 27.6867 28.3075 27.6081 28.2463 27.5206C28.2122 27.4638 28.1448 27.4163 27.8841 27.4045C26.7277 27.3527 26.7143 27.3542 26.1385 27.2508C26.0849 27.2416 26.0446 27.2141 26.0645 27.2002C26.0976 27.1771 26.1707 27.1432 26.2508 27.1384C27.0186 27.1033 27.7865 27.0712 28.5545 27.0469C28.8082 27.0387 28.9952 27.0276 29.0813 26.9707C29.2006 26.8921 29.1463 26.82 28.9118 26.7666C28.8382 26.7499 28.7175 26.7286 28.6374 26.7302C27.7559 26.7594 26.8812 26.7963 25.9997 26.8254C25.9196 26.8287 25.7724 26.8028 25.7387 26.7829C25.6715 26.7461 25.771 26.6968 26.0046 26.6795C26.3116 26.6559 26.6256 26.6538 26.8318 26.5767C27.1177 26.4671 27.4705 26.3666 27.7899 26.2616C27.8431 26.2431 27.9297 26.2076 27.9096 26.2045C27.7422 26.171 27.5481 26.1452 27.374 26.1133C27.0794 26.06 27.0784 25.9847 27.1443 25.9124C27.1971 25.854 27.3972 25.8306 27.6444 25.8301C27.7513 25.8299 27.8849 25.8297 27.9716 25.8157C28.1983 25.7815 28.2713 25.7384 28.1573 25.7063C28.0903 25.688 27.9698 25.6621 27.8896 25.6653C26.4606 25.7185 25.0248 25.7702 23.6026 25.8356C23.1819 25.8548 22.9876 25.7967 22.7333 25.7557C22.5391 25.7238 22.3585 25.7118 22.1183 25.7352C21.8914 25.7571 21.6709 25.7453 21.53 25.6948C21.4159 25.6535 21.6158 25.6178 22.1565 25.577C22.2566 25.5691 22.3701 25.5643 22.4434 25.5488C23.2163 25.3815 23.2162 25.38 23.7504 25.3576C24.2713 25.3367 24.2714 25.3351 24.5442 25.2456C24.6706 25.2039 24.8103 25.1621 24.93 25.1189C24.9766 25.1019 25.0565 25.0711 25.0296 25.0619C24.8821 25.0145 24.6815 25.0041 24.4478 25.0153C23.927 25.0423 23.3122 25.0219 23.0401 25.1683C22.9339 25.2238 22.767 25.2394 22.5266 25.2491C20.1094 25.3424 17.6921 25.4418 15.2681 25.5321C14.8741 25.5466 14.6945 25.6037 14.5416 25.667C14.4087 25.7195 14.2618 25.7351 14.0081 25.7447C13.7543 25.7544 13.5539 25.7594 13.4063 25.7089C13.3191 25.6783 13.3921 25.6352 13.5919 25.5918C13.8785 25.5299 13.8241 25.4532 13.7296 25.3811C13.6623 25.3336 13.4548 25.3002 13.2343 25.3036C12.9071 25.3103 12.5934 25.3278 12.3187 25.2668C12.158 25.2317 11.9572 25.2075 11.7765 25.1771C11.4283 25.1147 11.0801 25.0508 10.5929 25.0931C10.2587 25.0783 10.0242 25.0234 9.75644 24.9809C9.30798 24.911 9.26776 24.9003 9.58751 24.8245C9.94724 24.7393 9.66525 24.6292 9.86466 24.5459C10.0774 24.4564 10.3705 24.3776 10.63 24.2942C10.6966 24.2725 10.7565 24.2525 10.823 24.2308C10.669 24.2004 10.5283 24.1622 10.3476 24.141C10.1135 24.1138 9.99275 24.0802 10.005 23.9849C9.95802 23.9712 9.97835 24.0065 10.0319 24.0156C10.0922 24.0247 10.2392 24.0168 10.3125 24.0059C10.4992 23.9764 10.5922 23.9378 10.545 23.9056C10.5181 23.8888 10.391 23.8675 10.3108 23.8676C10.1639 23.8679 10.0374 23.9019 9.99826 23.9849C9.25081 24.0492 8.47611 24.0813 7.70146 24.1072C7.62134 24.1104 7.52081 24.0799 7.4271 24.0647C7.11915 24.013 7.11913 24.0145 6.21707 24.0007C6.12352 23.9993 5.9964 23.978 5.94937 23.9566C5.75449 23.8632 5.75997 23.7603 5.66523 23.6606C5.83814 23.5958 6.01093 23.5325 6.19054 23.4692C6.54974 23.341 7.01612 23.2281 7.295 23.0878C7.23396 23.0126 7.15286 22.9375 7.44606 22.8755C8.28019 22.7972 8.27356 22.7973 8.49981 22.7231C9.14528 22.5131 9.78401 22.3015 10.4563 22.0944C10.636 22.0403 10.6357 22.0112 10.3147 21.9887C10.2144 21.9827 10.1074 21.9814 10.0005 21.9846C9.6666 21.9959 9.33292 22.0242 9.00549 22.0186C8.67809 22.0146 8.43677 21.9474 8.16904 21.9064C7.89461 21.8638 7.62018 21.8197 7.34573 21.7757C7.0318 21.7808 6.7184 21.8244 6.40357 21.7558C6.16242 21.7024 5.86134 21.6646 5.5869 21.6205C5.79257 21.5034 6.17902 21.4136 6.47839 21.3101C6.75115 21.2159 6.7577 21.2175 7.49169 21.144C7.83867 21.1096 7.95681 20.9358 7.66225 20.8856C7.30743 20.8247 6.9327 20.7685 6.57124 20.7108C6.25731 20.7159 5.93721 20.758 5.63575 20.6894C5.40129 20.6376 5.13359 20.6027 4.74636 20.6233C4.09207 20.6583 3.42424 20.6763 2.7632 20.7051C2.53618 20.7147 2.28885 20.709 2.188 20.657C2.12075 20.6202 2.31388 20.5692 2.53421 20.558C2.86805 20.5421 3.16842 20.5231 3.3345 20.446C3.4939 20.3689 3.78753 20.3454 4.13479 20.334C4.22828 20.3308 4.33502 20.3122 4.38156 20.2936C4.62098 20.2041 4.88728 20.1268 5.40172 20.129C5.61513 20.0979 5.72816 20.0593 5.6609 20.0226C5.62058 20.0027 5.48004 19.9768 5.39991 19.98C4.84561 19.9963 4.29133 20.0127 3.75054 20.0413C3.49683 20.054 3.30302 20.0574 3.14213 20.0116C3.02819 19.981 3.0878 19.9395 3.30104 19.8945C3.48762 19.8558 3.54058 19.8112 3.52659 19.7589C3.49171 19.6376 3.29082 19.6027 2.64958 19.6115C2.1887 19.6184 2.07488 19.5986 1.9734 19.4943C1.94638 19.4698 1.87928 19.4361 1.92583 19.4191C2.21183 19.3142 2.39732 19.1848 2.93785 19.1347C3.15141 19.1159 3.37845 19.1155 3.51158 19.0753C3.6447 19.0351 3.76445 18.9888 3.90428 18.9502C4.07741 18.9038 4.19702 18.8606 4.1165 18.8315C3.98225 18.7795 3.76849 18.7753 3.52153 18.7942C3.30794 18.8099 3.08082 18.8118 2.86048 18.8214C2.46653 18.839 2.14545 18.7996 2.09786 18.7321C1.96876 18.5541 1.83296 18.3777 1.71722 18.1997C1.7036 18.1782 1.73657 18.1504 1.78979 18.1319C1.97606 18.0671 2.17581 18.0053 2.36878 17.9419C2.59504 17.8693 2.95602 17.8826 3.26316 17.8682C3.69715 17.8475 3.69702 17.849 4.27643 17.7005C4.50286 17.6417 4.89731 17.6641 5.1305 17.6114C5.20378 17.5944 5.31701 17.5666 5.29678 17.5512C5.26982 17.5313 5.13609 17.5162 5.03577 17.5071C4.94213 17.4981 4.82853 17.4937 4.72838 17.4985C3.51306 17.5451 2.30449 17.5948 1.08915 17.64C0.882149 17.648 0.654592 17.6146 0.580526 17.5671C0.506497 17.5227 0.525819 17.4689 0.511841 17.4182C0.70481 17.3549 0.924474 17.2961 1.09066 17.2282C1.21696 17.1758 1.36367 17.1525 1.6175 17.149C1.95147 17.1438 2.27863 17.1248 2.65257 17.1103C3.34462 16.8848 4.02313 16.6486 4.76862 16.423C5.06814 16.3318 4.99365 16.2397 5.0526 16.1428C5.11164 16.0536 5.55938 16.0667 5.85969 16.0401C6.09993 16.0181 6.17939 15.9688 6.08545 15.9352C6.03176 15.9153 5.9113 15.8925 5.81777 15.8926C5.59731 15.893 5.37703 15.9072 5.15666 15.9153C4.9363 15.9234 4.68239 15.9192 4.50233 15.9456C4.32894 15.9705 4.21594 16.0229 4.10291 16.0677C3.97658 16.1171 3.80989 16.1343 3.55607 16.1378C3.22875 16.1414 2.90159 16.1558 2.57438 16.1671C2.2129 16.1078 1.838 16.0501 1.48984 15.9877C1.42289 15.9756 1.40902 15.9402 1.41542 15.9172C1.42806 15.8573 1.32742 15.8205 1.10661 15.7917C0.919259 15.7675 0.765163 15.7324 0.591094 15.702C0.7242 15.6603 0.870739 15.6201 0.977085 15.5753C1.20976 15.4812 1.50291 15.4131 2.01068 15.4153C2.21036 15.355 2.36975 15.281 2.62979 15.2391C2.87648 15.1987 3.29787 15.2379 3.48382 15.147C3.5768 15.1022 3.71656 15.0513 3.89671 15.0325C4.18362 15.0029 4.55791 15.0176 4.72388 14.9313C4.82349 14.8819 4.96986 14.8371 5.16344 14.8245C5.38373 14.8103 5.61078 14.8068 5.77076 14.7774C5.85742 14.7618 5.95066 14.7371 5.9504 14.7156C5.95023 14.7018 5.81646 14.6805 5.72282 14.6714C5.63584 14.6608 5.52205 14.6533 5.42188 14.6566C5.08796 14.6664 4.76082 14.6838 4.42691 14.6936C4.33342 14.6969 4.22643 14.6863 4.12611 14.6773C3.83187 14.6532 3.85149 14.6224 4.08464 14.5667C4.31781 14.5125 4.48407 14.4431 4.67704 14.3798C4.89069 14.3687 5.15793 14.3728 5.30454 14.3434C5.55114 14.2953 5.72395 14.2259 5.92364 14.1656C6.14399 14.156 6.37107 14.1526 6.57797 14.1353C6.66474 14.129 6.70444 14.0951 6.77769 14.075C6.91083 14.0364 7.02382 13.9809 7.20397 13.9621C7.49758 13.934 7.85845 13.9441 8.03112 13.8593C8.13073 13.81 8.28369 13.7575 8.4707 13.7541C8.99171 13.747 9.21115 13.6621 9.4774 13.5818C9.67709 13.5215 10.1051 13.5515 10.3248 13.4912C10.4713 13.4525 10.5777 13.4047 10.7242 13.3676C10.7841 13.3521 10.9109 13.3442 11.0111 13.3395C11.5586 13.3155 12.1129 13.2976 12.6604 13.2721C12.7472 13.2673 12.8271 13.2441 12.8937 13.2256C13.0335 13.1854 13.1196 13.1299 13.293 13.1035C13.4663 13.0771 13.7135 13.0767 13.9272 13.0686C14.615 13.0444 14.6686 13.0504 14.981 12.9193C15.2335 12.8128 15.8558 12.887 16.0615 12.7699C16.1809 12.7021 16.4006 12.6464 16.7947 12.6381C17.349 12.6263 17.8965 12.5962 18.4507 12.5753C18.9448 12.556 18.9382 12.556 19.4709 12.4122C19.7106 12.3472 20.0649 12.3558 20.3787 12.343C20.7126 12.3301 21.0196 12.3112 21.179 12.2341C21.3384 12.1585 21.632 12.1334 21.9726 12.1221C22.2865 12.1108 22.6407 12.1179 22.8872 12.056C23.4866 11.9074 23.4799 11.9059 23.9006 11.8898C24.5617 11.8641 25.2227 11.8384 25.8838 11.8111C26.3245 11.7934 26.7854 11.7896 27.1992 11.755C27.4995 11.7299 27.632 11.6437 27.8251 11.5834C28.3726 11.5594 28.9201 11.5354 29.4676 11.513C30.2355 11.4809 31.0101 11.4519 31.7847 11.4214C32.118 11.3624 32.1633 11.2333 32.7244 11.2262C33.0584 11.2225 33.3855 11.202 33.7194 11.1891C34.2736 11.1666 34.8211 11.138 35.3754 11.1263C35.7962 11.1179 35.8685 11.0348 36.0884 10.9822C36.1616 10.9636 36.2282 10.9374 36.315 10.9326C37.1829 10.8881 38.0779 10.8773 38.9256 10.8129C39.0124 10.8066 39.0922 10.7742 39.1119 10.7511C39.1252 10.7388 39.0113 10.7159 38.9377 10.7053C38.8507 10.6932 38.737 10.6811 38.6435 10.6843C35.8857 10.792 33.128 10.9013 30.3701 11.009C29.9829 11.0251 29.9828 11.0235 29.0429 11.1941C28.9629 11.2081 28.8695 11.2236 28.7693 11.2284C28.3286 11.2476 27.8812 11.2592 27.4472 11.283C27.0934 11.302 26.7993 11.2841 26.5448 11.2292C26.3639 11.1896 26.1766 11.1776 25.9495 11.1811C25.6957 11.1861 25.529 11.2033 25.3825 11.2451C25.1895 11.3022 25.0902 11.3761 24.6828 11.3922C22.8064 11.4615 20.9299 11.5385 19.0602 11.6125C18.7994 11.5914 18.6721 11.5594 18.7385 11.5208C18.7783 11.4977 18.8581 11.4669 18.9382 11.4637C19.7061 11.4301 20.4807 11.4011 21.2486 11.369C21.3554 11.3642 21.5024 11.367 21.5623 11.3515C21.8554 11.2819 21.9611 11.1696 22.5155 11.1609C22.8361 11.1558 23.1631 11.1322 23.4701 11.1101C23.5569 11.1038 23.6367 11.0714 23.6565 11.0483C23.663 11.036 23.5558 11.0132 23.4755 11.0025C23.181 10.9585 22.8411 11.0129 22.5467 10.9827C22.4464 10.9721 22.3058 10.957 22.2856 10.9386C22.272 10.9217 22.3852 10.8938 22.4652 10.8768C22.5385 10.8613 22.6385 10.8473 22.7386 10.8425C23.62 10.8057 24.5016 10.7672 25.3831 10.7381C25.7437 10.7267 25.997 10.6878 26.1565 10.6169C26.2761 10.5644 26.4227 10.5365 26.6498 10.5285C28.1923 10.4689 29.7347 10.4033 31.284 10.3483C31.6713 10.3354 31.8712 10.2843 32.0307 10.218C32.157 10.1655 32.3037 10.1469 32.5508 10.1372C34.7611 10.0535 36.9579 9.96057 39.1682 9.87987C39.5756 9.86537 39.6951 9.79907 39.9015 9.74187C39.9747 9.72177 40.0211 9.69708 40.1144 9.68468C40.2078 9.67218 40.3281 9.67348 40.4416 9.67028C42.2045 9.60118 43.9674 9.52737 45.737 9.46287C46.151 9.44837 46.2301 9.37138 46.4433 9.31728C46.5165 9.30018 46.5831 9.27248 46.6699 9.26768C47.992 9.21318 49.3141 9.16168 50.6362 9.10868C51.5176 9.07338 52.399 9.03808 53.2805 9.00428C53.7145 8.98808 53.7145 8.98658 54.3007 8.83958C54.3673 8.82258 54.4606 8.80248 54.5474 8.79768C57.0848 8.69498 59.6155 8.59688 62.153 8.49568C62.3667 8.48758 62.5199 8.45198 62.6261 8.39958C62.7324 8.34718 62.8857 8.31157 63.0927 8.30347C65.0759 8.22327 67.0591 8.14458 69.049 8.06888C69.4096 8.05598 69.663 8.01868 69.8225 7.94928C69.9421 7.89678 70.0887 7.86887 70.3157 7.86077C72.299 7.78367 74.2823 7.70178 76.2722 7.62768C76.6528 7.61318 76.8392 7.56067 77.0255 7.49887C77.092 7.47727 77.1451 7.44177 77.2252 7.43857C78.2134 7.39387 79.1949 7.34758 80.1899 7.31668C80.604 7.30368 80.7435 7.23888 80.9098 7.17718C81.0428 7.12778 81.1963 7.11058 81.4501 7.10408C82.0044 7.08928 82.5518 7.06217 83.0927 7.03517C83.1728 7.03037 83.2726 6.99638 83.279 6.97488C83.2919 6.93488 83.1378 6.90758 82.8838 6.89418C80.2395 6.99858 77.5886 7.10308 74.9443 7.20748C74.5103 7.22518 74.5103 7.22518 73.9242 7.37218C73.8576 7.38918 73.7642 7.40928 73.6707 7.41408C71.1333 7.51528 68.6026 7.61487 66.0651 7.71607C65.8515 7.72417 65.6983 7.75977 65.592 7.81217C65.4858 7.86457 65.3324 7.90017 65.1254 7.90827C62.7015 8.00467 60.2776 8.10258 57.847 8.19438C57.4864 8.20728 57.233 8.24308 57.0735 8.31398C56.9539 8.36638 56.8073 8.39438 56.5802 8.40238C54.2631 8.49248 51.9527 8.58708 49.6288 8.67408C49.3951 8.68218 49.221 8.63798 49.2338 8.59648C49.2402 8.57498 49.3399 8.53947 49.42 8.53617C50.6286 8.48347 51.8306 8.42908 53.046 8.38858C53.4533 8.37558 53.5726 8.30778 53.7791 8.25058C53.8456 8.23048 53.8988 8.20427 53.9855 8.19337C54.0789 8.18087 54.1991 8.18228 54.3127 8.17898C57.1773 8.06488 60.042 7.94938 62.9134 7.84138C63.3274 7.82538 63.4065 7.74988 63.6197 7.69578C63.6929 7.67718 63.7594 7.64947 63.8463 7.64617C64.7276 7.60777 65.6091 7.57398 66.4905 7.54018C68.033 7.47918 69.5755 7.41807 71.1246 7.35707C71.572 7.33937 71.5721 7.33938 72.1448 7.19398C72.2114 7.17688 72.3048 7.15528 72.3916 7.15208C76.4715 6.98978 80.5515 6.82757 84.6315 6.66677C84.8451 6.65877 84.9983 6.62318 85.1046 6.57078C85.2109 6.51988 85.364 6.48267 85.571 6.47317C91.0866 6.25457 96.5956 6.03607 102.111 5.82067C102.472 5.80617 102.725 5.77348 102.885 5.70098C102.998 5.64858 103.151 5.62068 103.378 5.61108C109.441 5.37158 115.504 5.13218 121.574 4.89118C125.654 4.73048 129.734 4.56668 133.814 4.40898C134.188 4.39458 134.388 4.34657 134.574 4.28327C134.634 4.26167 134.694 4.22618 134.774 4.22298C135.648 4.18308 136.523 4.14617 137.398 4.10937C137.672 4.15037 137.947 4.18988 138.221 4.23088C138.427 4.17208 138.627 4.11188 138.834 4.05308C140.156 4.00628 141.458 3.93488 142.793 3.91098C142.88 3.90938 142.974 3.93837 143.068 3.95357C143.69 4.04927 144.044 4.04098 144.437 3.91128C144.577 3.86488 144.696 3.82318 144.91 3.81518C145.571 3.78638 146.239 3.76677 146.893 3.73337C147.247 3.71587 147.541 3.73067 147.796 3.78557C147.977 3.82517 148.164 3.84178 148.384 3.83218C149.6 3.78398 150.808 3.73728 152.023 3.68608C152.11 3.68278 152.19 3.65658 152.257 3.63798C152.396 3.59778 152.516 3.55457 152.649 3.51287C152.83 3.53867 153.031 3.55828 153.178 3.59188C153.366 3.63148 153.539 3.63118 153.793 3.61998C158.641 3.42568 163.495 3.23598 168.343 3.04008C168.757 3.02398 168.938 3.08827 169.219 3.12157C169.313 3.13367 169.407 3.14887 169.507 3.15177C169.614 3.15467 169.727 3.14528 169.834 3.14048C173.473 2.99588 177.113 2.85277 180.752 2.70817C181.233 2.68897 181.233 2.68898 181.949 2.78298C182.036 2.79508 182.149 2.80868 182.243 2.80398C183.899 2.74118 185.555 2.67378 187.204 2.60948C187.418 2.60138 187.599 2.62567 187.793 2.66067C188.175 2.72907 188.201 2.72908 188.48 2.62718C188.613 2.57938 188.753 2.54987 188.974 2.53567C189.214 2.51987 189.408 2.52417 189.595 2.55147C189.863 2.58947 190.058 2.65368 190.465 2.63608C192.228 2.56078 193.997 2.49777 195.753 2.42097C196.154 2.40337 196.368 2.45527 196.636 2.49317C196.73 2.50687 196.817 2.52818 196.917 2.53268C197.017 2.53708 197.138 2.52607 197.244 2.52127C199.448 2.43447 201.658 2.34928 203.855 2.25638C204.269 2.23878 204.45 2.30448 204.731 2.33778C204.825 2.34988 204.932 2.37128 205.019 2.36798C206.341 2.31808 207.67 2.26508 208.992 2.21208C209.466 2.19278 209.466 2.19438 210.189 2.28678C210.276 2.29898 210.389 2.31108 210.483 2.30778C212.025 2.24828 213.575 2.18717 215.117 2.12617C215.591 2.10687 215.591 2.10687 216.962 2.18437C217.062 2.19037 217.169 2.19947 217.269 2.19617C219.032 2.12707 220.802 2.05947 222.564 1.98567C222.918 1.97127 223.212 1.98308 223.467 2.03788C223.648 2.07758 223.835 2.09417 224.055 2.08457C226.039 2.00577 228.029 1.93018 230.005 1.84688C230.386 1.83078 230.633 1.86417 230.901 1.90827C230.988 1.92347 231.075 1.94477 231.175 1.95077C231.276 1.95677 231.389 1.95037 231.496 1.94557C233.479 1.86687 235.469 1.79278 237.446 1.70788C237.846 1.69028 238.061 1.74218 238.328 1.78018C238.422 1.79378 238.523 1.82128 238.603 1.81958C239.377 1.79218 240.152 1.76778 240.92 1.72798C241.334 1.70578 241.515 1.77607 241.796 1.80947C241.89 1.82007 241.997 1.84288 242.084 1.83968C243.74 1.77688 245.396 1.71098 247.045 1.64368C247.279 1.63398 247.453 1.64747 247.64 1.68717C247.888 1.74047 248.176 1.76148 248.536 1.74398C249.304 1.70728 250.079 1.68137 250.853 1.65087C251.307 1.63317 251.307 1.63318 252.698 1.71068C252.798 1.71658 252.905 1.72568 253.005 1.72238C254.327 1.67088 255.656 1.62097 256.972 1.56497C257.325 1.54897 257.62 1.56228 257.874 1.61718C258.055 1.65678 258.235 1.67338 258.463 1.66378C259.678 1.61558 260.887 1.56738 262.102 1.51918C262.543 1.50148 262.983 1.47157 263.424 1.47077C263.745 1.47177 263.979 1.54508 264.267 1.58148C264.347 1.59208 264.481 1.57957 264.588 1.57627C266.13 1.51527 267.679 1.45877 269.215 1.39007C269.616 1.37247 269.83 1.42428 270.098 1.46228C270.192 1.47588 270.292 1.50337 270.372 1.50167C270.927 1.48387 271.474 1.45988 272.028 1.43888C272.689 1.41318 273.357 1.39358 274.012 1.35868C274.546 1.33008 274.748 1.46338 275.175 1.46728C275.503 1.47128 275.836 1.44458 276.164 1.43178C276.825 1.40598 277.486 1.37718 278.147 1.35458C278.38 1.34648 278.561 1.32158 278.634 1.26618C278.647 1.25538 278.533 1.23248 278.459 1.21878C277.569 1.06368 277.569 1.06368 276.674 1.09898C276.12 1.12148 275.572 1.14397 275.018 1.16337C274.924 1.16657 274.817 1.15448 274.724 1.14538C274.456 1.11978 274.483 1.08897 274.709 1.03327C274.936 0.977575 275.108 0.909674 275.301 0.846374C275.576 0.885874 275.844 0.925274 276.118 0.964774C276.338 0.956674 276.559 0.947075 276.779 0.939075C277.881 0.897175 278.983 0.853775 280.084 0.814975C280.165 0.811775 280.265 0.842374 280.359 0.857574C280.627 0.901674 280.868 0.939576 281.255 0.922076C282.243 0.875776 283.238 0.841777 284.226 0.801677C284.66 0.783977 284.66 0.783975 285.423 0.877975C285.51 0.888575 285.624 0.900676 285.717 0.897376C286.712 0.860376 287.7 0.820177 288.695 0.781577C288.909 0.773577 289.116 0.793174 289.271 0.837474C289.331 0.855774 289.318 0.886576 289.575 1.13808C290.366 1.34098 290.907 1.31857 291.454 1.29917C291.688 1.29107 291.895 1.28307 292.048 1.25207C292.128 1.23497 292.228 1.21028 292.228 1.19028C292.228 1.17488 292.08 1.15057 291.987 1.14767C291.325 1.11807 290.698 1.18378 290.05 1.19868C289.749 1.20538 289.488 1.15207 289.434 1.06457C289.42 1.03997 289.4 1.01388 289.379 0.989375C289.359 0.964775 289.345 0.938776 289.325 0.914176C289.064 0.906976 288.911 0.934877 288.798 0.987277C288.705 1.03048 288.572 1.07987 288.392 1.10327C288.212 1.12817 287.965 1.12398 287.744 1.13198C287.531 1.14008 287.297 1.16048 287.097 1.15008C286.896 1.13808 286.735 1.09377 286.548 1.06647C286.461 1.05277 286.354 1.03308 286.267 1.03628C285.499 1.06368 284.738 1.09118 283.976 1.12628C283.576 1.14538 283.375 1.08127 283.12 1.04167C282.919 1.01137 282.719 1.01938 282.686 1.09008C282.602 1.25928 282.91 1.32937 283.591 1.29587C284.152 1.26727 284.659 1.26177 285.102 1.36547C285.162 1.37927 285.302 1.38518 285.389 1.38188C285.937 1.36258 286.477 1.33857 287.025 1.31917C287.125 1.31587 287.232 1.32188 287.326 1.32788C288.69 1.40848 288.69 1.40998 289.15 1.39078C289.371 1.38118 289.584 1.37308 289.562 1.13958C289.979 0.888475 290.647 0.870374 291.295 0.832374C291.715 0.808674 291.897 0.875877 292.171 0.910777C292.265 0.922877 292.365 0.947276 292.452 0.944076C293.888 0.890876 295.317 0.834675 296.746 0.775275C296.986 0.765675 297.16 0.774574 297.347 0.814174C297.588 0.864474 297.856 0.896277 298.237 0.877177C298.998 0.838977 299.772 0.814577 300.547 0.782577C300.941 0.766477 300.941 0.766474 301.737 0.860374C301.824 0.870974 301.938 0.883075 302.031 0.879775C302.806 0.852375 303.574 0.818775 304.342 0.789775C304.555 0.781775 304.749 0.802877 304.917 0.844077C305.084 0.885277 305.285 0.906476 305.492 0.898376C306.267 0.869376 307.035 0.837375 307.803 0.808375C307.896 0.805075 308.01 0.815674 308.097 0.826274C308.913 0.920074 308.913 0.920075 309.287 0.904075C309.834 0.880075 310.395 0.868377 310.936 0.836677C311.463 0.805077 311.738 0.893676 312.1 0.942176C313.088 0.905176 314.083 0.874274 315.065 0.829574C315.465 0.810374 315.68 0.860776 315.947 0.900176C316.041 0.913876 316.135 0.942876 316.222 0.941176C316.556 0.934476 316.883 0.917074 317.21 0.904174C317.537 0.891274 317.871 0.878477 318.198 0.865577C318.573 0.909477 318.822 1.01347 319.356 0.977275C319.676 0.955175 320.017 0.949975 320.344 0.937175C320.671 0.924275 321.005 0.911374 321.332 0.898574C321.552 0.890474 321.78 0.885476 321.993 0.871276C322.387 0.847576 322.582 0.922475 322.863 0.955775C322.956 0.966375 323.063 0.984676 323.15 0.981376C323.811 0.958776 324.479 0.939175 325.127 0.902675C325.627 0.874175 325.969 0.919677 326.324 0.983577C326.397 0.997277 326.524 1.00478 326.618 1.00148C327.392 0.974075 328.16 0.940475 328.928 0.911475C329.135 0.903375 329.336 0.927677 329.503 0.967277C329.678 1.00848 329.872 1.02818 330.085 1.02008C330.853 0.991076 331.628 0.958977 332.396 0.929977C332.489 0.926777 332.603 0.938876 332.69 0.950976C333.439 1.04498 333.439 1.04647 333.88 1.02727C333.987 1.02247 334.1 1.01928 334.207 1.01448C334.755 0.991976 335.323 0.983276 335.857 0.945476C336.471 0.902976 336.919 0.954474 337.354 1.04127C337.902 1.02187 338.463 1.01018 338.997 0.978477C339.397 0.954777 339.612 1.01277 339.88 1.05067C339.973 1.06437 340.074 1.09188 340.154 1.08858C340.929 1.06118 341.703 1.03678 342.464 0.997077C342.878 0.974777 343.059 1.04358 343.34 1.07848C343.434 1.09058 343.535 1.11198 343.621 1.10868C344.062 1.09568 344.503 1.07648 344.944 1.05878C345.458 1.03788 345.458 1.03948 346.14 1.13198C346.462 1.17598 346.782 1.14008 347.096 1.12878C347.43 1.11588 347.743 1.10617 348.011 1.16867C348.179 1.20837 348.38 1.23258 348.587 1.22608C349.027 1.21148 349.475 1.19688 349.909 1.17308C350.256 1.15408 350.557 1.16577 350.811 1.22217C350.992 1.26187 351.179 1.28148 351.4 1.27188C352.388 1.23328 353.383 1.19317 354.371 1.15607C354.458 1.15287 354.578 1.16647 354.659 1.18017C354.846 1.20747 355.027 1.23797 355.208 1.26837C355.642 1.25377 356.089 1.24687 356.517 1.22457C356.971 1.20227 357.385 1.19387 357.74 1.27777C357.814 1.29607 357.921 1.32198 358.008 1.32028C358.341 1.31358 358.669 1.29767 358.996 1.28477C359.323 1.27197 359.657 1.25908 359.984 1.24618C360.365 1.28398 360.607 1.39417 361.141 1.35787C361.462 1.33587 361.802 1.33067 362.13 1.31777C362.457 1.30487 362.791 1.29047 363.118 1.27917C363.225 1.27597 363.345 1.26807 363.438 1.27397C363.539 1.27997 363.626 1.30138 363.713 1.31658C363.981 1.36068 364.228 1.40477 364.609 1.37797C364.929 1.35597 365.27 1.35078 365.597 1.33638C366.044 1.31868 366.044 1.31868 366.787 1.41418C367.088 1.45358 367.428 1.40077 367.716 1.43407C367.91 1.45677 368.078 1.49487 368.265 1.52067C368.345 1.53127 368.472 1.53567 368.566 1.53247C369.006 1.51787 369.454 1.50328 369.888 1.47948C370.242 1.46038 370.536 1.47828 370.784 1.53318C370.965 1.57278 371.145 1.58938 371.372 1.57978C372.474 1.53488 373.576 1.49607 374.671 1.44657C375.045 1.42897 375.346 1.45457 375.553 1.50957C375.909 1.60417 376.408 1.49117 376.777 1.56737C377.004 1.61457 377.232 1.66947 377.646 1.64577C378.407 1.60447 379.182 1.58158 379.95 1.55258C380.224 1.59358 380.499 1.63467 380.78 1.67557C381.22 1.65797 381.661 1.64028 382.102 1.62418C382.429 1.61128 382.763 1.59687 383.09 1.58557C383.197 1.58227 383.31 1.57598 383.411 1.58348C383.511 1.59098 383.592 1.61078 383.685 1.62598C384.147 1.70048 384.147 1.70207 384.908 1.66997C385.236 1.65557 385.549 1.64587 385.824 1.70677C386.079 1.76317 386.379 1.77348 386.727 1.75598C387.381 1.72408 388.042 1.69988 388.71 1.67718C388.917 1.66918 389.111 1.69498 389.285 1.73458C389.546 1.79708 389.867 1.79038 390.194 1.77298C390.628 1.75068 391.055 1.72848 391.424 1.81388C391.497 1.83218 391.611 1.85808 391.692 1.85638C392.239 1.84318 392.794 1.83297 393.328 1.80287C393.862 1.77277 394.123 1.86747 394.491 1.91297C395.039 1.89207 395.593 1.87108 396.141 1.85018C396.248 1.84538 396.374 1.83137 396.468 1.83887C396.863 1.87047 397.091 1.98527 397.632 1.94897C397.946 1.92847 398.286 1.92178 398.613 1.91658C398.7 1.91488 398.814 1.94078 398.875 1.96068C398.908 1.97138 398.875 2.00057 398.835 2.01607C398.715 2.05927 398.569 2.09948 398.463 2.14418C398.449 2.15038 398.577 2.17777 398.65 2.18997C398.831 2.21727 399.038 2.21238 399.278 2.19968C399.485 2.18858 399.699 2.20968 399.847 2.25548C399.907 2.27388 399.888 2.30458 399.762 2.40618C399.763 2.48148 399.903 2.44748 399.949 2.39818C400.021 2.32738 399.881 2.30457 399.614 2.34347C399.427 2.37147 399.334 2.41157 399.382 2.44377C399.408 2.46057 399.536 2.48188 399.762 2.40618C400.349 2.31298 400.789 2.29537 401.23 2.27767C401.344 2.27287 401.477 2.25728 401.557 2.26638C401.845 2.30268 402.113 2.34677 402.394 2.38777C402.714 2.37807 403.015 2.35447 403.329 2.41387C403.771 2.49757 403.791 2.48987 404.219 2.47217C404.439 2.46257 404.659 2.45458 404.88 2.44648C405.1 2.43848 405.274 2.46118 405.468 2.49618C405.863 2.56768 405.897 2.56758 406.156 2.46888C406.309 2.40868 406.416 2.38847 406.61 2.41577C407.252 2.50837 407.259 2.51458 407.806 2.48598C408.26 2.46208 408.688 2.45527 409.023 2.54217C409.251 2.60327 409.324 2.58927 409.504 2.52447C409.983 2.35307 410.203 2.35578 411.106 2.47718C411.528 2.53478 411.962 2.47108 412.389 2.46268C412.75 2.45588 413.004 2.49228 413.032 2.58898C413.053 2.64888 413.113 2.69178 413.354 2.71138C413.448 2.71888 413.561 2.72948 413.655 2.72618C414.209 2.70678 414.757 2.68438 415.311 2.66188C415.591 2.65068 415.744 2.57817 415.69 2.48297C415.628 2.38177 415.735 2.34468 416.135 2.31478C416.375 2.29748 416.569 2.30018 416.763 2.32748C416.978 2.35788 416.918 2.38568 416.731 2.44128C416.285 2.57728 416.34 2.66008 416.915 2.75278C417.116 2.78468 417.277 2.81367 417.324 2.86117C417.351 2.88567 417.325 2.91807 417.385 2.93637C417.714 3.03877 418.169 3.10397 418.677 3.15227C419.164 3.10997 419.499 3.17848 419.874 3.23318C420.169 3.27568 420.516 3.23817 420.829 3.22227C421.183 3.20477 421.477 3.21657 421.732 3.27297C421.913 3.31257 422.1 3.33067 422.32 3.32257C422.761 3.30497 423.209 3.29348 423.642 3.26808C424.016 3.24598 424.297 3.27618 424.532 3.32798C424.826 3.39358 425.153 3.34847 425.461 3.35707C425.875 3.36717 426.084 3.50347 426.625 3.46567C426.945 3.44367 427.279 3.43538 427.613 3.42868C427.7 3.42698 427.807 3.45288 427.881 3.47118C428.236 3.55508 428.65 3.54977 429.104 3.52437C429.418 3.50697 429.725 3.49108 430.033 3.54888C430.542 3.64638 431.104 3.73137 431.639 3.82107C431.714 3.89167 431.661 3.97468 432.043 4.01548C432.243 4.03668 432.431 4.06867 432.585 4.10367C432.772 4.14487 432.946 4.15528 433.186 4.14418C433.62 4.12188 434.075 4.11648 434.502 4.08808C434.896 4.06278 435.144 4.11307 435.385 4.16027C435.579 4.19837 435.76 4.21648 435.993 4.18838C436.233 4.16188 436.407 4.17848 436.601 4.21958C436.876 4.27598 436.896 4.26977 437.805 4.28517C437.898 4.28647 438.012 4.30938 438.066 4.32918C438.093 4.33998 438.033 4.37078 437.986 4.38618C437.926 4.40478 437.833 4.42637 437.746 4.43117C436.758 4.47287 435.763 4.50987 434.775 4.55157C434.675 4.55637 434.568 4.56727 434.495 4.58277C434.415 4.59987 434.315 4.62308 434.315 4.64458C434.315 4.65988 434.449 4.67807 434.543 4.68867C434.837 4.72357 435.184 4.66918 435.472 4.70858C435.666 4.73438 435.826 4.77098 436.02 4.79518C436.101 4.80588 436.228 4.80408 436.328 4.80088C436.662 4.78948 436.989 4.77357 437.323 4.76377C437.416 4.76207 437.523 4.77727 437.61 4.78937C438.253 4.88047 438.253 4.88048 438.807 4.85948C439.027 4.85148 439.261 4.82797 439.468 4.83687C439.669 4.84577 439.843 4.88688 440.024 4.91268C440.398 4.96738 440.753 5.02048 440.781 5.14028C440.795 5.18638 441.016 5.22598 441.237 5.22858C441.45 5.23128 441.677 5.21407 441.898 5.20447C442.419 5.18507 442.419 5.18507 443.094 5.27767C443.282 5.30347 443.482 5.30617 443.723 5.29037C443.816 5.28407 443.93 5.28998 444.03 5.29758C444.358 5.31998 444.358 5.34918 444.145 5.40488C443.845 5.48678 443.872 5.49448 444.715 5.56208C445.036 5.58768 445.283 5.63638 445.551 5.67898C445.986 5.74738 445.98 5.74738 445.693 5.83848C445.627 5.85858 445.567 5.88017 445.5 5.90177C445.307 5.96207 445.155 6.02688 444.754 6.03368C444.313 6.04058 443.872 6.06597 443.432 6.08367C443.004 6.10127 442.891 6.13837 442.933 6.24267C442.981 6.36857 443.068 6.38227 443.836 6.37947C444.057 6.37907 444.25 6.39097 444.418 6.43217C444.338 6.48147 444.192 6.52018 443.978 6.52978C443.431 6.55378 442.876 6.57468 442.329 6.59558C441.888 6.61328 441.447 6.63087 441.007 6.64857C440.733 6.65977 440.56 6.73997 440.635 6.82897C440.676 6.87957 440.709 6.93028 440.744 6.98088C440.818 7.08218 440.959 7.10808 441.406 7.10268C441.52 7.10098 441.627 7.08848 441.734 7.09138C442.168 7.10138 442.377 7.22848 442.897 7.20148C443.331 7.17918 443.786 7.17378 444.213 7.14538C444.607 7.12018 444.828 7.17507 445.102 7.21607C445.196 7.22977 445.297 7.25878 445.377 7.25708C445.931 7.23918 446.485 7.22138 447.026 7.19128C447.28 7.17848 447.433 7.18748 447.634 7.22398C448.116 7.31228 448.13 7.30757 448.844 7.27867C449.365 7.25627 449.372 7.25937 450.041 7.35187C450.228 7.37767 450.429 7.37738 450.669 7.36468C450.983 7.34878 451.31 7.32358 451.638 7.34608C451.738 7.35208 451.865 7.37027 451.899 7.39017C451.919 7.40397 451.826 7.43788 451.746 7.44878C451.159 7.52968 450.471 7.51708 449.83 7.55048C449.629 7.56008 449.428 7.53117 449.261 7.48997C449.087 7.44877 448.9 7.43228 448.672 7.44038C448.232 7.45798 447.784 7.46948 447.35 7.49488C446.977 7.51698 446.716 7.48217 446.454 7.43497C446.367 7.41977 446.267 7.39067 446.18 7.39237C445.192 7.42487 444.197 7.45727 443.215 7.50207C442.821 7.52117 442.593 7.47238 442.326 7.43138C442.232 7.41768 442.138 7.38868 442.051 7.39038C441.717 7.39708 441.39 7.41457 441.056 7.42747C439.841 7.47567 438.632 7.52378 437.417 7.56898C437.337 7.57218 437.236 7.54007 437.143 7.52637C436.962 7.49907 436.774 7.47327 436.587 7.44747C436.253 7.46037 435.926 7.47628 435.592 7.48608C435.352 7.49268 435.138 7.51457 435.106 7.57297C435.086 7.61137 435.307 7.64637 435.541 7.64287C435.768 7.63937 435.995 7.62057 436.182 7.64017C437.112 7.73697 437.112 7.73847 437.693 7.71747C438.2 7.69817 438.147 7.68287 438.595 7.76657C438.789 7.80317 438.963 7.82438 439.184 7.81478C439.731 7.79228 440.286 7.76988 440.84 7.75048C440.927 7.74718 441.04 7.76237 441.127 7.77447C441.783 7.86557 441.783 7.86868 442.324 7.84468C443.032 7.81578 443.059 7.80807 443.534 7.90087C443.862 7.96487 444.162 7.91977 444.476 7.91617C444.838 7.97547 445.232 8.02858 445.561 8.09558C445.949 8.17478 446.356 8.16027 446.797 8.13647C447.124 8.11897 447.445 8.11228 447.713 8.17478C447.967 8.23278 448.275 8.23838 448.622 8.22238C448.936 8.20808 449.256 8.17827 449.584 8.21147C449.671 8.22057 449.805 8.24337 449.798 8.25727C449.792 8.27877 449.705 8.30968 449.618 8.31898C449.005 8.38308 448.33 8.38267 447.682 8.41297C447.595 8.41777 447.482 8.40108 447.395 8.38888C447.207 8.36158 447.026 8.32968 446.846 8.30078C446.519 8.31058 446.185 8.31417 445.864 8.33317C445.617 8.34747 445.43 8.34628 445.249 8.30968C445.082 8.27618 444.901 8.23497 444.7 8.22457C444.5 8.21417 444.266 8.23768 444.046 8.24728C443.826 8.25688 443.572 8.25268 443.398 8.27758C443.225 8.30248 443.119 8.35638 443.006 8.39958C442.879 8.44748 442.706 8.46318 442.452 8.46818C442.218 8.47318 442.031 8.46737 441.857 8.42467C441.783 8.40637 441.683 8.39268 441.582 8.38058C441.489 8.36998 441.382 8.35327 441.295 8.35647C440.3 8.39357 439.312 8.43367 438.317 8.47227C437.822 8.49157 437.829 8.49157 436.799 8.40267C436.706 8.39517 436.592 8.38467 436.498 8.38787C435.944 8.40727 435.397 8.42977 434.842 8.45217C434.281 8.47467 434.288 8.47158 433.332 8.37648C433.158 8.35838 432.904 8.38338 432.697 8.38068C432.263 8.37368 432.047 8.24508 431.54 8.27048C431.106 8.29278 430.652 8.29818 430.218 8.32658C429.824 8.35188 429.596 8.29848 429.328 8.25748C429.235 8.24378 429.134 8.21328 429.054 8.21648C428.059 8.25198 427.071 8.29208 425.748 8.29898C425.421 8.29958 425.568 8.33158 425.782 8.34198C426.089 8.35838 426.189 8.32588 426.022 8.26478C425.901 8.22188 425.727 8.20068 425.587 8.21168C425.513 8.21798 425.42 8.24738 425.748 8.29898C426.096 8.35678 426.077 8.38907 426.137 8.40737C426.284 8.45167 426.492 8.46977 426.705 8.46327C427.039 8.45187 427.367 8.43598 427.7 8.42618C427.794 8.42298 427.908 8.43347 427.995 8.44567C428.731 8.53967 428.737 8.54578 429.519 8.50758C429.766 8.49638 429.946 8.49607 430.14 8.52487C430.408 8.56437 430.602 8.63167 431.01 8.60937C431.55 8.57927 432.105 8.56147 432.659 8.54357C432.746 8.54037 432.84 8.56787 432.94 8.57997C433.214 8.61637 433.416 8.68518 433.823 8.65528C434.136 8.63168 434.477 8.62487 434.811 8.61967C434.898 8.61797 435.032 8.64238 435.072 8.66228C435.153 8.69748 435.053 8.73918 434.826 8.76868C434.733 8.78118 434.606 8.77828 434.499 8.78308C434.058 8.80078 433.618 8.81997 433.177 8.83457C432.943 8.84267 432.723 8.86608 432.697 8.92298C432.677 8.96138 432.918 8.99477 433.145 8.99127C433.479 8.98617 433.813 8.97328 434.134 8.95278C434.701 8.91798 435.196 8.92628 435.658 9.02228C435.986 9.08928 435.966 9.06478 436.315 9.26388C436.403 9.31448 436.663 9.31858 436.891 9.31518C437.438 9.30648 437.692 9.32908 437.646 9.37678C437.587 9.43528 437.393 9.45408 437.146 9.46218C436.705 9.47528 436.265 9.49597 435.824 9.51367C435.717 9.51847 435.597 9.52787 435.497 9.52497C435.397 9.52207 435.303 9.50378 435.216 9.49008C435.028 9.46128 434.867 9.41698 434.667 9.40658C434.466 9.39618 434.233 9.41958 434.013 9.42918C433.792 9.43728 433.559 9.46067 433.358 9.45027C433.158 9.43987 432.99 9.39407 432.809 9.36677C432.722 9.35307 432.615 9.33178 432.528 9.33348C432.087 9.34648 431.647 9.36728 431.206 9.38338C430.665 9.40428 430.665 9.40428 430.009 9.31018C429.822 9.28288 429.628 9.28478 429.381 9.29748C428.847 9.32298 428.84 9.31838 427.864 9.23098C427.77 9.22188 427.656 9.21137 427.563 9.21607C426.568 9.25317 425.58 9.29327 424.591 9.33187C423.743 9.36557 423.743 9.36568 423.278 9.52008C422.932 9.63438 422.925 9.63438 423.266 9.68598C423.541 9.72858 423.789 9.79107 424.09 9.81357C424.37 9.83467 424.717 9.76487 425.025 9.83507C425.179 9.87007 425.38 9.90817 425.574 9.91397C425.881 9.92117 426.208 9.87598 426.503 9.94308C426.65 9.97668 426.871 10.0116 427.058 10.0128C427.386 10.0153 427.719 9.99017 428.047 9.97877C428.147 9.97557 428.26 9.97537 428.354 9.98287C428.454 9.99197 428.541 10.0103 428.628 10.0255C428.896 10.0772 429.184 10.1013 429.531 10.0746C430.098 10.0306 430.606 10.0512 431.048 10.1488C431.109 10.1625 431.256 10.1638 431.349 10.1575C431.589 10.1417 431.796 10.1398 431.977 10.1687C432.051 10.1808 432.158 10.2021 432.145 10.216C432.125 10.2391 432.045 10.2699 431.958 10.2778C431.331 10.3311 430.657 10.3384 430.009 10.3672C429.922 10.3704 429.815 10.3506 429.728 10.337C429.541 10.3096 429.38 10.2638 429.179 10.2534C428.978 10.243 428.745 10.2634 428.525 10.2715C428.304 10.2795 428.071 10.303 427.87 10.2941C427.67 10.2837 427.482 10.2456 427.321 10.2121C427.134 10.174 426.953 10.1697 426.706 10.1855C426.386 10.206 426.052 10.2097 425.725 10.221C425.544 10.1921 425.363 10.1602 425.176 10.1328C425.089 10.1192 424.982 10.1025 424.888 10.1042C424.447 10.1172 424.007 10.1364 423.566 10.1541C423.125 10.1717 423.125 10.1718 422.376 10.0778C422.289 10.0672 422.175 10.0551 422.082 10.0583C421.527 10.0777 420.98 10.1017 420.426 10.1211C420.212 10.1292 420.018 10.108 419.844 10.0668C419.676 10.0256 419.476 10.0029 419.269 10.011C418.387 10.0448 417.506 10.077 416.624 10.117C416.27 10.133 415.97 10.1197 415.728 10.0648C415.447 10.0023 415.133 10.0182 414.806 10.031C414.065 10.0631 414.058 10.0615 413.583 9.98397C413.489 9.96877 413.395 9.93977 413.309 9.94137C412.541 9.96577 411.766 9.98867 411.005 10.0269C410.604 10.0475 410.39 9.99408 410.122 9.95468C410.028 9.94098 409.928 9.91198 409.848 9.91518C409.293 9.93308 408.739 9.94937 408.198 9.98107C407.657 10.0127 407.449 9.87017 407.041 9.87247C406.487 9.87497 405.939 9.91118 405.392 9.93368C404.951 9.95138 404.51 9.96897 404.07 9.98667C403.629 10.0044 403.188 10.0189 402.748 10.0397C402.514 10.0508 402.34 10.0373 402.146 9.99918C401.898 9.94898 401.604 9.90958 401.336 9.86388C400.928 9.79858 400.927 9.79857 400.433 9.81787C400.327 9.82267 400.213 9.82588 400.106 9.83068C399.298 9.86588 399.298 9.86287 398.268 9.76787C398.221 9.76327 398.101 9.78038 398.055 9.79278C397.915 9.83298 397.789 9.87618 397.662 9.91788C397.481 9.89368 397.261 9.88018 397.14 9.84508C396.798 9.74578 396.265 9.88348 395.917 9.78578C395.789 9.74908 395.568 9.71718 395.368 9.70838C395.161 9.69948 394.927 9.72138 394.714 9.73098C394.159 9.75498 394.159 9.75347 393.687 9.89097C393.447 9.95907 393.1 9.94737 392.786 9.96327C392.459 9.98067 392.145 9.99047 391.87 9.92797C391.622 9.87157 391.321 9.85828 390.968 9.87728C390.534 9.90108 390.086 9.91567 389.645 9.93027C389.552 9.93347 389.438 9.92608 389.344 9.91698C388.321 9.82808 388.321 9.82658 387.827 9.84738C387.607 9.85698 387.38 9.86047 387.166 9.87467C386.806 9.89987 386.531 9.86808 386.27 9.81938C386.183 9.80418 386.083 9.77517 385.996 9.77687C385.555 9.78527 385.121 9.79988 384.687 9.81448C384.353 9.82578 384.019 9.83248 383.699 9.85458C383.165 9.89088 382.903 9.79147 382.535 9.74597C381.987 9.76687 381.433 9.78168 380.885 9.81028C380.632 9.82308 380.465 9.81868 380.271 9.78218C380.023 9.73658 379.795 9.68468 379.394 9.70848C378.86 9.74008 378.299 9.75177 377.752 9.77117C377.384 9.72417 377.115 9.62788 376.588 9.66418C376.268 9.68618 375.927 9.69138 375.6 9.70428C375.159 9.72188 374.718 9.73807 374.278 9.75727C373.804 9.77647 373.81 9.77188 373.081 9.68248C372.659 9.62948 372.226 9.69018 371.798 9.70008C371.464 9.70838 371.298 9.77938 371.38 9.86988C371.461 9.96038 371.281 10.0313 370.974 10.0442C370.206 10.0747 369.432 10.1068 368.664 10.1342C368.57 10.1374 368.457 10.1269 368.37 10.1163C367.547 10.0209 367.547 10.0225 367.179 10.0369C366.632 10.0609 366.071 10.0742 365.53 10.1043C365.156 10.1249 364.882 10.0932 364.641 10.0413C364.453 10.0017 364.279 9.99278 364.039 10.0024C361.395 10.11 358.75 10.2098 356.113 10.3204C355.719 10.3364 355.491 10.2923 355.224 10.2513C355.13 10.2376 355.043 10.2086 354.949 10.2087C354.729 10.2091 354.508 10.2233 354.288 10.2329C353.3 10.2715 352.312 10.3178 351.317 10.3472C350.896 10.3602 350.783 10.4311 350.603 10.4898C350.464 10.5345 350.304 10.5533 350.057 10.5598C349.816 10.5664 349.642 10.559 349.455 10.5194C349.214 10.4676 348.939 10.4358 348.566 10.4579C348.132 10.4833 347.691 10.4948 347.243 10.5125C347.016 10.5206 346.843 10.5485 346.77 10.6039C346.757 10.6132 346.897 10.636 346.978 10.6497C347.246 10.6953 347.5 10.7486 347.801 10.7804C348.109 10.8121 348.442 10.7746 348.763 10.7649C348.876 10.7616 348.983 10.7522 349.09 10.7535C349.19 10.7549 349.311 10.7624 349.384 10.7761C349.733 10.8446 350.1 10.8916 350.581 10.8493C350.995 10.8685 351.211 10.9957 351.738 10.961C352.059 10.9404 352.393 10.9306 352.727 10.9224C352.813 10.9207 352.907 10.9482 353.001 10.9618C353.269 10.9998 353.483 11.0609 353.884 11.0341C354.311 11.0057 354.765 11.0003 355.199 10.978C355.439 10.9653 355.613 10.9757 355.801 11.0154C356.042 11.0656 356.316 11.1036 356.69 11.0783C357.01 11.0563 357.351 11.0511 357.678 11.0367C358.106 11.019 358.106 11.0206 358.868 11.1145C358.955 11.1251 359.069 11.1372 359.163 11.134C359.717 11.1146 360.264 11.0906 360.819 11.0712C361.032 11.0631 361.24 11.0827 361.387 11.127C361.448 11.1454 361.428 11.1761 361.448 11.2022C360.346 11.2456 359.245 11.2828 358.15 11.3354C357.736 11.3561 357.548 11.2935 357.273 11.2586C357.18 11.2465 357.079 11.2205 356.992 11.2238C356.218 11.2512 355.45 11.2802 354.682 11.3153C354.442 11.3265 354.261 11.3207 354.08 11.2764C353.618 11.159 353.058 11.2245 352.537 11.2423C352.136 11.2552 352.01 11.3031 352.058 11.4044C352.119 11.5241 352.36 11.5606 352.974 11.538C353.195 11.53 353.415 11.5188 353.636 11.5123C353.849 11.5058 354.043 11.5254 354.217 11.5666C354.385 11.6078 354.586 11.6289 354.793 11.6224C355.233 11.6078 355.681 11.5932 356.108 11.5694C356.462 11.5504 356.756 11.5652 357.004 11.6217C357.279 11.6842 357.599 11.6698 357.92 11.6554C358.668 11.6234 358.674 11.6249 359.143 11.7009C359.236 11.7161 359.33 11.7451 359.417 11.7435C360.185 11.7191 360.96 11.6978 361.714 11.6596C362.108 11.6405 362.336 11.6892 362.597 11.7287C362.691 11.7424 362.785 11.7729 362.871 11.7697C363.426 11.7519 363.98 11.734 364.521 11.7039C364.774 11.6896 364.928 11.6985 365.136 11.735C365.631 11.8248 365.645 11.8217 366.346 11.7913C366.559 11.7817 366.793 11.7644 366.993 11.7764C367.194 11.7883 367.355 11.8326 367.542 11.8599C367.629 11.8721 367.736 11.8888 367.83 11.8855C368.271 11.8725 368.711 11.8533 369.152 11.8356C369.566 11.818 369.566 11.8195 370.342 11.9134C370.657 11.9528 370.984 11.9185 371.298 11.9056C371.638 11.8912 371.945 11.8907 372.207 11.9502C372.468 12.0096 372.782 12.006 373.116 11.9931C373.43 11.9803 373.75 11.9459 374.071 11.9869C374.807 12.0808 374.807 12.0824 375.261 12.0631C375.922 12.0359 376.576 12.0102 377.244 11.9859C377.331 11.9827 377.445 12.001 377.532 12.0131C377.719 12.0404 377.88 12.0862 378.081 12.0966C378.281 12.1086 378.515 12.0897 378.728 12.0802C379.416 12.0498 379.463 12.0389 379.925 12.1395C380.314 12.2218 380.793 12.1012 381.155 12.1958C381.363 12.2492 381.644 12.2917 382.031 12.2649C382.351 12.2429 382.685 12.2361 383.019 12.2233C383.547 12.2024 383.547 12.2039 384.216 12.2949C384.303 12.3071 384.417 12.3222 384.503 12.319C384.944 12.306 385.392 12.2944 385.819 12.266C386.32 12.2329 386.641 12.2907 387.016 12.3469C387.31 12.391 387.657 12.3535 387.971 12.3376C388.312 12.3216 388.619 12.3257 388.873 12.3852C389.141 12.4462 389.455 12.4379 389.789 12.4251C390.103 12.4138 390.423 12.3779 390.745 12.4203C391.434 12.5144 391.434 12.5144 391.935 12.4951C392.375 12.4774 392.816 12.4582 393.257 12.4452C393.344 12.4419 393.451 12.4617 393.538 12.4754C393.725 12.5027 393.886 12.5485 394.087 12.5589C394.287 12.5694 394.521 12.549 394.741 12.5409C394.961 12.5328 395.195 12.5094 395.395 12.5183C395.596 12.5271 395.784 12.5652 395.944 12.5987C396.132 12.6384 396.306 12.6427 396.559 12.6269C396.88 12.6063 397.214 12.6011 397.541 12.5898C397.722 12.6187 397.909 12.6476 398.083 12.6795C398.264 12.713 398.458 12.7096 398.705 12.6984C399.526 12.6601 399.533 12.6647 400.222 12.7588C400.536 12.8012 400.863 12.7653 401.177 12.754C401.511 12.7412 401.825 12.7345 402.086 12.7955C402.341 12.8534 402.655 12.8605 402.989 12.8415C403.202 12.8289 403.429 12.8208 403.65 12.8158C403.75 12.8141 403.87 12.82 403.944 12.8322C404.299 12.8961 404.647 12.9539 405.134 12.9116C405.562 12.9231 405.777 13.0487 406.291 13.0232C406.725 13.001 407.179 12.9956 407.607 12.9672C408 12.9419 408.282 12.9844 408.483 13.0379C408.845 13.1325 409.351 13.0026 409.713 13.0956C409.92 13.1491 410.188 13.1916 410.589 13.1679C411.029 13.1425 411.17 13.1745 411.298 13.2711C411.372 13.3263 411.359 13.3709 411.226 13.4141C411.093 13.4589 410.946 13.4515 410.732 13.4011C410.484 13.3447 410.19 13.3345 409.836 13.3474C409.489 13.3603 409.274 13.2808 408.986 13.2505C408.699 13.2188 408.359 13.2731 408.058 13.2322C407.348 13.1366 407.348 13.1366 406.867 13.1559C406.54 13.1688 406.2 13.1755 405.879 13.1976C405.499 13.2243 405.251 13.1771 404.99 13.1346C404.896 13.1194 404.802 13.0903 404.722 13.092C403.954 13.1164 403.179 13.1393 402.418 13.179C402.018 13.1997 401.803 13.1447 401.536 13.1068C401.442 13.0931 401.341 13.0656 401.261 13.0688C400.6 13.0915 399.946 13.1203 399.285 13.1476C399.158 13.1893 399.018 13.2294 398.899 13.2742C398.772 13.3205 398.599 13.3408 398.345 13.3397C397.924 13.3404 397.511 13.4057 397.089 13.325C396.654 13.2428 396.62 13.2474 396.2 13.2681C395.666 13.2952 395.098 13.29 394.597 13.3508C394.511 13.3617 394.417 13.3911 394.418 13.4126C394.411 13.4264 394.552 13.4461 394.639 13.4583C394.933 13.4946 395.273 13.4403 395.567 13.4782C395.762 13.5024 395.922 13.539 396.116 13.5648C396.197 13.5754 396.317 13.5737 396.424 13.5719C396.537 13.5702 396.644 13.5593 396.751 13.5606C396.851 13.562 396.958 13.571 397.039 13.5847C397.407 13.6424 397.795 13.6955 398.123 13.7641C398.445 13.8311 398.745 13.7845 399.065 13.7809C400.349 13.8862 400.349 13.8878 401.211 13.8525C401.424 13.8444 401.645 13.8348 401.865 13.836C401.959 13.8358 402.046 13.8633 402.14 13.8785C402.407 13.9241 402.662 13.9652 403.036 13.9399C403.356 13.9179 403.697 13.9127 404.024 13.8983C404.465 13.8806 404.465 13.8806 405.214 13.9761C405.401 14.0003 405.602 13.9969 405.842 13.9842C406.049 13.9731 406.263 13.9958 406.41 14.0401C406.471 14.0584 406.451 14.0892 406.472 14.1153C405.81 14.141 405.143 14.159 404.502 14.197C404.088 14.2208 403.9 14.1551 403.626 14.1202C403.532 14.1081 403.431 14.0821 403.345 14.0854C402.69 14.1095 402.036 14.1368 401.382 14.1686C401.301 14.1718 401.202 14.2074 401.195 14.2289C401.182 14.2688 401.35 14.307 401.59 14.305C401.911 14.3029 402.225 14.2762 402.513 14.3387C402.754 14.3936 403.055 14.4177 403.408 14.3925C403.622 14.3783 403.849 14.3779 404.063 14.3652C404.63 14.3274 405.145 14.3342 405.573 14.4379C405.901 14.465 406.222 14.4383 406.535 14.4239C406.769 14.4128 406.996 14.4016 407.163 14.4305C407.518 14.4914 407.866 14.5522 408.354 14.5099C408.882 14.552 409.284 14.6419 409.726 14.7149C409.933 14.7499 410.094 14.7696 410.334 14.7461C410.434 14.7367 410.554 14.7365 410.661 14.7317C410.882 14.7237 411.115 14.7002 411.316 14.7091C411.516 14.7195 411.684 14.7637 411.864 14.7911C411.951 14.8048 412.052 14.8276 412.139 14.8259C412.473 14.8177 412.8 14.8018 413.127 14.7889C413.454 14.7776 413.781 14.7663 414.109 14.7549C414.383 14.7944 414.664 14.8339 414.938 14.8733C415.379 14.8557 415.82 14.838 416.254 14.8219C416.742 14.8026 416.741 14.8041 417.444 14.8982C417.759 14.9406 418.092 14.9124 418.393 14.8919C418.893 14.8588 419.228 14.9166 419.583 14.9774C419.657 14.9896 419.79 14.997 419.877 14.9907C420.224 14.9686 420.525 14.985 420.779 15.0414C420.96 15.081 421.141 15.0991 421.361 15.0911C422.129 15.0606 422.897 15.0285 423.665 15.001C423.759 14.9978 423.866 15.0115 423.953 15.0236C424.635 15.1161 424.642 15.1207 425.143 15.0953C425.59 15.073 426.004 15.063 426.359 15.1469C426.433 15.1652 426.547 15.1912 426.627 15.1895C427.174 15.1732 427.729 15.1553 428.27 15.1282C428.517 15.1155 428.69 15.1198 428.885 15.1548C429.132 15.199 429.353 15.2523 429.761 15.2317C430.889 15.1729 430.896 15.1821 432.233 15.2857C432.327 15.2933 432.454 15.2808 432.56 15.2744C432.787 15.2587 432.955 15.2799 433.155 15.3149C433.604 15.394 433.617 15.3894 434.045 15.3717C434.372 15.3573 434.713 15.3536 435.033 15.33C435.527 15.2954 435.855 15.3547 436.223 15.4109C436.518 15.455 436.858 15.4175 437.172 15.4032C437.512 15.3872 437.82 15.3913 438.074 15.4492C438.248 15.4888 438.436 15.51 438.656 15.502C439.424 15.473 440.192 15.4409 440.96 15.4119C441.053 15.4087 441.167 15.4208 441.254 15.4314C442.017 15.5253 442.017 15.5299 442.771 15.4933C443.012 15.4821 443.212 15.4787 443.393 15.5106C443.567 15.5411 443.754 15.5699 443.935 15.5988C444.262 15.5875 444.596 15.5838 444.917 15.5648C445.164 15.5506 445.337 15.5564 445.531 15.5884C445.786 15.6294 446.001 15.7012 446.401 15.6652C446.608 15.6479 446.848 15.6521 447.055 15.6364C447.302 15.616 447.469 15.628 447.664 15.6676C447.905 15.7148 448.152 15.7635 448.54 15.7383C448.967 15.7099 449.421 15.7045 449.855 15.6822C450.095 15.6695 450.263 15.6815 450.457 15.7211C450.698 15.7714 450.972 15.8032 451.346 15.7826C452.107 15.7429 452.114 15.7505 452.857 15.846C453.044 15.8703 453.244 15.8669 453.485 15.8542C453.692 15.843 453.906 15.8657 454.053 15.91C454.194 15.9589 454.181 15.9897 454.195 16.0158ZM394.496 2.26327C394.275 2.27127 394.055 2.28088 393.733 2.14778C393.712 2.12478 393.725 2.09718 393.678 2.07728C393.571 2.03598 393.404 2.00708 393.203 2.00278C392.842 1.99728 392.409 2.05027 392.416 2.09017C392.423 2.12397 392.537 2.15297 392.758 2.18027C392.851 2.19077 392.925 2.20917 393.012 2.22127C393.266 2.25617 393.468 2.32497 393.835 2.28897C393.801 2.24137 393.767 2.19387 393.835 2.28897C393.802 2.34747 393.903 2.38878 394.143 2.40518C394.21 2.40968 394.31 2.40647 394.364 2.39717C394.57 2.36297 394.603 2.31688 394.448 2.19578C394.422 2.21578 394.442 2.25108 394.502 2.26018C394.563 2.26928 394.709 2.26138 394.783 2.25048C394.969 2.22098 395.063 2.18238 395.015 2.15018C394.989 2.13338 394.861 2.11207 394.781 2.11217C394.641 2.11247 394.514 2.14647 394.496 2.26327ZM448.732 19.9859C448.244 20.016 447.683 20.0062 447.196 20.0669C447.109 20.0778 447.023 20.1056 447.016 20.1272C447.01 20.141 447.144 20.1608 447.224 20.1714C447.405 20.1956 447.605 20.1876 447.839 20.1795C448.193 20.1681 448.401 20.2384 448.675 20.2733C448.762 20.2839 448.876 20.2914 448.969 20.2882C449.51 20.2688 450.044 20.2479 450.585 20.2254C450.679 20.2207 450.779 20.2097 450.859 20.1958C451.125 20.1508 451.098 20.1216 450.837 20.0883C450.55 20.0519 450.322 19.9908 450.027 19.9622C449.606 19.9214 449.179 19.9775 448.732 19.9859ZM410.806 21.1733C410.479 21.1862 410.159 21.199 409.831 21.2119C409.725 21.2167 409.611 21.2184 409.511 21.2247C409.304 21.2358 409.151 21.2684 409.051 21.3192C409.205 21.3589 409.393 21.3816 409.6 21.3767C409.927 21.3669 410.247 21.3463 410.575 21.3412C410.929 21.3344 411.137 21.4032 411.411 21.438C411.498 21.4486 411.605 21.45 411.705 21.4514C412.199 21.4566 412.499 21.3762 412.404 21.2642C412.336 21.1768 412.082 21.125 411.775 21.1363C411.454 21.1476 411.127 21.1605 410.806 21.1733ZM450.989 17.7113C451.069 17.685 451.155 17.6665 451.195 17.6433C451.314 17.5648 451.267 17.5065 451.046 17.4454C450.777 17.3706 450.451 17.4219 450.15 17.4301C450.077 17.4317 449.997 17.4641 449.957 17.4842C449.931 17.498 449.931 17.5272 449.971 17.5349C450.299 17.5957 450.647 17.652 450.989 17.7113ZM392.98 13.2737C392.659 13.2866 392.332 13.2964 392.011 13.3138C391.931 13.3186 391.858 13.3479 391.812 13.3679C391.725 13.405 391.819 13.4555 392.093 13.4596C392.407 13.4652 392.734 13.4385 393.062 13.4257C393.476 13.4096 393.722 13.3523 393.568 13.3034C393.42 13.2561 393.22 13.2472 392.98 13.2737ZM41.2813 10.6014C41.495 10.5933 41.7154 10.5868 41.929 10.5757C42.1293 10.5646 42.2827 10.5305 42.3823 10.4796C42.2148 10.44 42.0274 10.4188 41.8204 10.4238C41.4931 10.4335 41.1726 10.4464 40.8522 10.4623C40.6519 10.4719 40.4586 10.506 40.4125 10.5583C40.3662 10.5984 40.8139 10.6206 41.2813 10.6014ZM364.685 9.80308C364.772 9.81678 364.859 9.84428 364.946 9.84418C365.159 9.84378 365.38 9.83418 365.58 9.81848C365.667 9.81218 365.733 9.78437 365.773 9.76277C365.8 9.74897 365.793 9.72438 365.753 9.71218C365.558 9.63878 364.783 9.66618 364.657 9.75088C364.644 9.76628 364.678 9.78618 364.685 9.80308ZM343.505 1.42697C343.525 1.45147 343.532 1.47608 343.559 1.50058C343.613 1.54658 343.761 1.58017 343.975 1.60277C344.141 1.56407 344.228 1.52098 344.221 1.47488C344.214 1.45028 344.193 1.42578 344.166 1.40118C344.112 1.35518 343.965 1.32168 343.751 1.29898C343.584 1.33618 343.504 1.37927 343.505 1.42697ZM466.472 21.344C466.412 21.364 466.352 21.3841 466.286 21.4027C466.467 21.4469 466.634 21.4604 466.761 21.4356C466.841 21.4201 466.887 21.397 466.947 21.3769C466.766 21.3327 466.605 21.3207 466.472 21.344ZM462.319 21.5601C462.406 21.5738 462.487 21.5921 462.58 21.6011C462.734 21.6162 462.874 21.5899 462.98 21.5344C462.893 21.5207 462.813 21.5024 462.719 21.4933C462.566 21.4782 462.426 21.5046 462.319 21.5601ZM464.948 21.2744C464.902 21.3114 464.996 21.3419 465.243 21.3676C465.303 21.3475 465.383 21.3289 465.423 21.3074C465.489 21.2719 465.375 21.2399 465.134 21.2157C465.068 21.2342 465.008 21.2543 464.948 21.2744ZM450.825 19.6428C450.779 19.6797 450.873 19.7103 451.12 19.736C451.18 19.7159 451.26 19.6973 451.3 19.6757C451.366 19.6403 451.252 19.6082 451.012 19.5841C450.945 19.6026 450.885 19.6227 450.825 19.6428ZM431.48 8.80527C431.42 8.82537 431.36 8.84537 431.293 8.86397C431.474 8.90817 431.641 8.92178 431.768 8.89688C431.848 8.88138 431.894 8.85828 431.954 8.83818C431.773 8.79398 431.613 8.78197 431.48 8.80527ZM413.004 3.06998C413.165 3.08038 413.298 3.05867 413.411 3.00167C413.324 2.98797 413.244 2.96967 413.15 2.96057C412.996 2.94547 412.856 2.97188 412.75 3.02738C412.837 3.04258 412.924 3.05628 413.004 3.06998ZM403.226 2.72588C403.167 2.74598 403.107 2.76608 403.04 2.78458C403.221 2.82888 403.388 2.84238 403.515 2.81758C403.595 2.80208 403.641 2.77898 403.701 2.75888C403.52 2.71458 403.36 2.70418 403.226 2.72588ZM336.931 1.43677C336.872 1.45687 336.812 1.47697 336.745 1.49547C336.926 1.53977 337.093 1.55328 337.22 1.52848C337.3 1.51298 337.346 1.48988 337.406 1.46978C337.225 1.42558 337.065 1.41507 336.931 1.43677ZM7.0702 14.5093C6.98318 14.4956 6.89624 14.482 6.81589 14.4667C6.62266 14.5085 6.56302 14.5471 6.67027 14.5761C6.7373 14.5944 6.83756 14.605 6.92457 14.6186C7.12448 14.5768 7.17078 14.5398 7.0702 14.5093Z" fill="#FFE492"/>
</svg>
